<svg width="645" height="480" viewBox="0 0 645 480" fill="none" xmlns="http://www.w3.org/2000/svg">
<path d="M645 421.817H0V422.139H645V421.817Z" fill="#EBEBEB"/>
<path d="M580.371 442.547H537.646V442.869H580.371V442.547Z" fill="#EBEBEB"/>
<path d="M427.274 446.051H416.064V446.373H427.274V446.051Z" fill="#EBEBEB"/>
<path d="M536.356 430.591H511.601V430.913H536.356V430.591Z" fill="#EBEBEB"/>
<path d="M123.388 432.755H67.6733V433.077H123.388V432.755Z" fill="#EBEBEB"/>
<path d="M143.048 432.755H134.882V433.077H143.048V432.755Z" fill="#EBEBEB"/>
<path d="M290.443 438.192H169.596V438.514H290.443V438.192Z" fill="#EBEBEB"/>
<path d="M305.73 364.355H56.644C54.6927 364.351 52.8225 363.575 51.4439 362.195C50.0653 360.816 49.291 358.947 49.291 356.998V7.29225C49.308 5.35455 50.0898 3.5018 51.4665 2.13642C52.8433 0.771043 54.7038 0.00331937 56.644 0H305.73C307.684 0 309.557 0.775075 310.939 2.15472C312.32 3.53436 313.096 5.40556 313.096 7.35667V356.998C313.096 358.949 312.32 360.82 310.939 362.2C309.557 363.58 307.684 364.355 305.73 364.355ZM56.644 0.257678C54.7782 0.261091 52.99 1.00373 51.6719 2.3226C50.3538 3.64147 49.6135 5.42879 49.6135 7.29225V356.998C49.6135 358.862 50.3538 360.649 51.6719 361.968C52.99 363.287 54.7782 364.029 56.644 364.033H305.73C307.597 364.029 309.387 363.287 310.707 361.968C312.027 360.65 312.77 358.863 312.774 356.998V7.29225C312.77 5.42761 312.027 3.64032 310.707 2.32182C309.387 1.00332 307.597 0.261083 305.73 0.257678H56.644Z" fill="#EBEBEB"/>
<path d="M584.77 364.355H335.671C333.718 364.351 331.847 363.575 330.466 362.196C329.086 360.817 328.308 358.948 328.305 356.998V7.29225C328.325 5.35338 329.11 3.50064 330.489 2.13561C331.868 0.770593 333.729 0.00328317 335.671 0H584.77C586.708 0.00670538 588.565 0.775928 589.939 2.14094C591.313 3.50596 592.093 5.35678 592.11 7.29225V356.998C592.11 358.945 591.337 360.812 589.962 362.191C588.586 363.57 586.719 364.348 584.77 364.355ZM335.671 0.257678C333.804 0.261083 332.014 1.00332 330.694 2.32182C329.374 3.64032 328.631 5.42761 328.627 7.29225V356.998C328.631 358.863 329.374 360.65 330.694 361.968C332.014 363.287 333.804 364.029 335.671 364.033H584.77C586.637 364.029 588.426 363.287 589.746 361.968C591.067 360.65 591.81 358.863 591.813 356.998V7.29225C591.81 5.42761 591.067 3.64032 589.746 2.32182C588.426 1.00332 586.637 0.261083 584.77 0.257678H335.671Z" fill="#EBEBEB"/>
<path d="M321.029 61.4172H102.349V306.107H321.029V61.4172Z" fill="#EBEBEB"/>
<path d="M321.029 65.3726H106.644V301.778H321.029V65.3726Z" fill="#FAFAFA"/>
<path d="M114.565 190.848V174.241H119.312V163.161H125.646V146.554H127.233V163.161H133.567V174.241H138.314V190.848H147.034V195.589H150.994V213.781H151.781V187.679H154.155V204.286H156.529V164.746H158.115V181.353H164.449V175.826H166.823V152.88H171.583V129.946H173.17V133.103H205.639V123.62H211.173V87.2365H213.559V123.62H221.48V133.103H224.641V180.567H241.269V166.33H235.735V163.96H241.269V160.004H257.11V123.62H261.07V118.08H280.072V123.62H282.458V174.241H291.166V197.174H295.913V178.982H299.873V174.241H308.594V157.621H313.341V146.554H318.875V129.946H321.029V301.778H106.644V190.848H114.565Z" fill="#F0F0F0"/>
<path d="M193.513 135.589H191.268V137.831H193.513V135.589Z" fill="#FAFAFA"/>
<path d="M193.513 139.339H191.268V141.58H193.513V139.339Z" fill="#FAFAFA"/>
<path d="M193.513 154.374H191.268V156.616H193.513V154.374Z" fill="#FAFAFA"/>
<path d="M193.513 158.123H191.268V160.365H193.513V158.123Z" fill="#FAFAFA"/>
<path d="M193.513 161.885H191.268V164.127H193.513V161.885Z" fill="#FAFAFA"/>
<path d="M193.513 173.159H191.268V175.4H193.513V173.159Z" fill="#FAFAFA"/>
<path d="M193.513 176.908H191.268V179.15H193.513V176.908Z" fill="#FAFAFA"/>
<path d="M197.073 150.612H194.829V152.854H197.073V150.612Z" fill="#FAFAFA"/>
<path d="M197.073 154.374H194.829V156.616H197.073V154.374Z" fill="#FAFAFA"/>
<path d="M197.073 158.123H194.829V160.365H197.073V158.123Z" fill="#FAFAFA"/>
<path d="M197.073 161.885H194.829V164.127H197.073V161.885Z" fill="#FAFAFA"/>
<path d="M197.073 165.647H194.829V167.889H197.073V165.647Z" fill="#FAFAFA"/>
<path d="M197.073 173.159H194.829V175.4H197.073V173.159Z" fill="#FAFAFA"/>
<path d="M197.073 176.908H194.829V179.15H197.073V176.908Z" fill="#FAFAFA"/>
<path d="M200.634 135.589H198.389V137.831H200.634V135.589Z" fill="#FAFAFA"/>
<path d="M200.634 139.339H198.389V141.58H200.634V139.339Z" fill="#FAFAFA"/>
<path d="M200.634 143.101H198.389V145.342H200.634V143.101Z" fill="#FAFAFA"/>
<path d="M200.634 146.863H198.389V149.105H200.634V146.863Z" fill="#FAFAFA"/>
<path d="M200.634 150.612H198.389V152.854H200.634V150.612Z" fill="#FAFAFA"/>
<path d="M200.634 154.374H198.389V156.616H200.634V154.374Z" fill="#FAFAFA"/>
<path d="M200.634 158.123H198.389V160.365H200.634V158.123Z" fill="#FAFAFA"/>
<path d="M200.634 161.885H198.389V164.127H200.634V161.885Z" fill="#FAFAFA"/>
<path d="M200.634 165.647H198.389V167.889H200.634V165.647Z" fill="#FAFAFA"/>
<path d="M200.634 169.397H198.389V171.638H200.634V169.397Z" fill="#FAFAFA"/>
<path d="M200.634 176.908H198.389V179.15H200.634V176.908Z" fill="#FAFAFA"/>
<path d="M204.207 135.589H201.962V137.831H204.207V135.589Z" fill="#FAFAFA"/>
<path d="M204.207 139.339H201.962V141.58H204.207V139.339Z" fill="#FAFAFA"/>
<path d="M204.207 143.101H201.962V145.342H204.207V143.101Z" fill="#FAFAFA"/>
<path d="M204.207 146.863H201.962V149.105H204.207V146.863Z" fill="#FAFAFA"/>
<path d="M204.207 150.612H201.962V152.854H204.207V150.612Z" fill="#FAFAFA"/>
<path d="M204.207 154.374H201.962V156.616H204.207V154.374Z" fill="#FAFAFA"/>
<path d="M204.207 158.123H201.962V160.365H204.207V158.123Z" fill="#FAFAFA"/>
<path d="M204.207 191.943H201.962V194.185H204.207V191.943Z" fill="#FAFAFA"/>
<path d="M207.768 135.589H205.523V137.831H207.768V135.589Z" fill="#FAFAFA"/>
<path d="M207.768 139.339H205.523V141.58H207.768V139.339Z" fill="#FAFAFA"/>
<path d="M207.768 143.101H205.523V145.342H207.768V143.101Z" fill="#FAFAFA"/>
<path d="M207.768 146.863H205.523V149.105H207.768V146.863Z" fill="#FAFAFA"/>
<path d="M207.768 150.612H205.523V152.854H207.768V150.612Z" fill="#FAFAFA"/>
<path d="M207.768 154.374H205.523V156.616H207.768V154.374Z" fill="#FAFAFA"/>
<path d="M207.768 158.123H205.523V160.365H207.768V158.123Z" fill="#FAFAFA"/>
<path d="M207.768 161.885H205.523V164.127H207.768V161.885Z" fill="#FAFAFA"/>
<path d="M207.768 184.432H205.523V186.674H207.768V184.432Z" fill="#FAFAFA"/>
<path d="M207.768 188.181H205.523V190.423H207.768V188.181Z" fill="#FAFAFA"/>
<path d="M207.768 191.943H205.523V194.185H207.768V191.943Z" fill="#FAFAFA"/>
<path d="M207.768 195.705H205.523V197.947H207.768V195.705Z" fill="#FAFAFA"/>
<path d="M207.768 210.728H205.523V212.97H207.768V210.728Z" fill="#FAFAFA"/>
<path d="M211.328 135.589H209.083V137.831H211.328V135.589Z" fill="#FAFAFA"/>
<path d="M211.328 139.339H209.083V141.58H211.328V139.339Z" fill="#FAFAFA"/>
<path d="M211.328 143.101H209.083V145.342H211.328V143.101Z" fill="#FAFAFA"/>
<path d="M211.328 146.863H209.083V149.105H211.328V146.863Z" fill="#FAFAFA"/>
<path d="M211.328 150.612H209.083V152.854H211.328V150.612Z" fill="#FAFAFA"/>
<path d="M211.328 154.374H209.083V156.616H211.328V154.374Z" fill="#FAFAFA"/>
<path d="M211.328 158.123H209.083V160.365H211.328V158.123Z" fill="#FAFAFA"/>
<path d="M211.328 161.885H209.083V164.127H211.328V161.885Z" fill="#FAFAFA"/>
<path d="M211.328 165.647H209.083V167.889H211.328V165.647Z" fill="#FAFAFA"/>
<path d="M211.328 169.397H209.083V171.638H211.328V169.397Z" fill="#FAFAFA"/>
<path d="M211.328 180.67H209.083V182.912H211.328V180.67Z" fill="#FAFAFA"/>
<path d="M211.328 184.432H209.083V186.674H211.328V184.432Z" fill="#FAFAFA"/>
<path d="M211.328 188.181H209.083V190.423H211.328V188.181Z" fill="#FAFAFA"/>
<path d="M211.328 191.943H209.083V194.185H211.328V191.943Z" fill="#FAFAFA"/>
<path d="M211.328 195.705H209.083V197.947H211.328V195.705Z" fill="#FAFAFA"/>
<path d="M211.328 210.728H209.083V212.97H211.328V210.728Z" fill="#FAFAFA"/>
<path d="M214.888 135.589H212.644V137.831H214.888V135.589Z" fill="#FAFAFA"/>
<path d="M214.888 139.339H212.644V141.58H214.888V139.339Z" fill="#FAFAFA"/>
<path d="M214.888 143.101H212.644V145.342H214.888V143.101Z" fill="#FAFAFA"/>
<path d="M214.888 146.863H212.644V149.105H214.888V146.863Z" fill="#FAFAFA"/>
<path d="M214.888 150.612H212.644V152.854H214.888V150.612Z" fill="#FAFAFA"/>
<path d="M214.888 154.374H212.644V156.616H214.888V154.374Z" fill="#FAFAFA"/>
<path d="M214.888 158.123H212.644V160.365H214.888V158.123Z" fill="#FAFAFA"/>
<path d="M214.888 161.885H212.644V164.127H214.888V161.885Z" fill="#FAFAFA"/>
<path d="M214.888 165.647H212.644V167.889H214.888V165.647Z" fill="#FAFAFA"/>
<path d="M214.888 169.397H212.644V171.638H214.888V169.397Z" fill="#FAFAFA"/>
<path d="M214.888 173.159H212.644V175.4H214.888V173.159Z" fill="#FAFAFA"/>
<path d="M214.888 176.908H212.644V179.15H214.888V176.908Z" fill="#FAFAFA"/>
<path d="M214.888 180.67H212.644V182.912H214.888V180.67Z" fill="#FAFAFA"/>
<path d="M214.888 184.432H212.644V186.674H214.888V184.432Z" fill="#FAFAFA"/>
<path d="M214.888 188.181H212.644V190.423H214.888V188.181Z" fill="#FAFAFA"/>
<path d="M214.888 191.943H212.644V194.185H214.888V191.943Z" fill="#FAFAFA"/>
<path d="M214.888 195.705H212.644V197.947H214.888V195.705Z" fill="#FAFAFA"/>
<path d="M214.888 199.455H212.644V201.696H214.888V199.455Z" fill="#FAFAFA"/>
<path d="M218.461 135.589H216.217V137.831H218.461V135.589Z" fill="#FAFAFA"/>
<path d="M218.461 139.339H216.217V141.58H218.461V139.339Z" fill="#FAFAFA"/>
<path d="M218.461 143.101H216.217V145.342H218.461V143.101Z" fill="#FAFAFA"/>
<path d="M218.461 146.863H216.217V149.105H218.461V146.863Z" fill="#FAFAFA"/>
<path d="M218.461 150.612H216.217V152.854H218.461V150.612Z" fill="#FAFAFA"/>
<path d="M218.461 154.374H216.217V156.616H218.461V154.374Z" fill="#FAFAFA"/>
<path d="M218.461 158.123H216.217V160.365H218.461V158.123Z" fill="#FAFAFA"/>
<path d="M218.461 161.885H216.217V164.127H218.461V161.885Z" fill="#FAFAFA"/>
<path d="M218.461 165.647H216.217V167.889H218.461V165.647Z" fill="#FAFAFA"/>
<path d="M218.461 169.397H216.217V171.638H218.461V169.397Z" fill="#FAFAFA"/>
<path d="M218.461 180.67H216.217V182.912H218.461V180.67Z" fill="#FAFAFA"/>
<path d="M218.461 184.432H216.217V186.674H218.461V184.432Z" fill="#FAFAFA"/>
<path d="M218.461 188.181H216.217V190.423H218.461V188.181Z" fill="#FAFAFA"/>
<path d="M218.461 191.943H216.217V194.185H218.461V191.943Z" fill="#FAFAFA"/>
<path d="M222.022 135.589H219.777V137.831H222.022V135.589Z" fill="#FAFAFA"/>
<path d="M222.022 139.339H219.777V141.58H222.022V139.339Z" fill="#FAFAFA"/>
<path d="M222.022 143.101H219.777V145.342H222.022V143.101Z" fill="#FAFAFA"/>
<path d="M222.022 146.863H219.777V149.105H222.022V146.863Z" fill="#FAFAFA"/>
<path d="M222.022 150.612H219.777V152.854H222.022V150.612Z" fill="#FAFAFA"/>
<path d="M222.022 154.374H219.777V156.616H222.022V154.374Z" fill="#FAFAFA"/>
<path d="M222.022 158.123H219.777V160.365H222.022V158.123Z" fill="#FAFAFA"/>
<path d="M222.022 161.885H219.777V164.127H222.022V161.885Z" fill="#FAFAFA"/>
<path d="M222.022 165.647H219.777V167.889H222.022V165.647Z" fill="#FAFAFA"/>
<path d="M222.022 169.397H219.777V171.638H222.022V169.397Z" fill="#FAFAFA"/>
<path d="M222.022 180.67H219.777V182.912H222.022V180.67Z" fill="#FAFAFA"/>
<path d="M222.022 184.432H219.777V186.674H222.022V184.432Z" fill="#FAFAFA"/>
<path d="M222.022 188.181H219.777V190.423H222.022V188.181Z" fill="#FAFAFA"/>
<path d="M262.141 125.836H259.896V128.078H262.141V125.836Z" fill="#FAFAFA"/>
<path d="M262.141 129.586H259.896V131.827H262.141V129.586Z" fill="#FAFAFA"/>
<path d="M262.141 133.348H259.896V135.589H262.141V133.348Z" fill="#FAFAFA"/>
<path d="M262.141 137.097H259.896V139.339H262.141V137.097Z" fill="#FAFAFA"/>
<path d="M262.141 140.859H259.896V143.101H262.141V140.859Z" fill="#FAFAFA"/>
<path d="M262.141 144.621H259.896V146.863H262.141V144.621Z" fill="#FAFAFA"/>
<path d="M262.141 148.37H259.896V150.612H262.141V148.37Z" fill="#FAFAFA"/>
<path d="M262.141 152.132H259.896V154.374H262.141V152.132Z" fill="#FAFAFA"/>
<path d="M262.141 163.406H259.896V165.647H262.141V163.406Z" fill="#FAFAFA"/>
<path d="M262.141 167.155H259.896V169.397H262.141V167.155Z" fill="#FAFAFA"/>
<path d="M265.714 125.836H263.47V128.078H265.714V125.836Z" fill="#FAFAFA"/>
<path d="M265.714 129.586H263.47V131.827H265.714V129.586Z" fill="#FAFAFA"/>
<path d="M265.714 133.348H263.47V135.589H265.714V133.348Z" fill="#FAFAFA"/>
<path d="M265.714 137.097H263.47V139.339H265.714V137.097Z" fill="#FAFAFA"/>
<path d="M265.714 140.859H263.47V143.101H265.714V140.859Z" fill="#FAFAFA"/>
<path d="M265.714 144.621H263.47V146.863H265.714V144.621Z" fill="#FAFAFA"/>
<path d="M265.714 148.37H263.47V150.612H265.714V148.37Z" fill="#FAFAFA"/>
<path d="M265.714 152.132H263.47V154.374H265.714V152.132Z" fill="#FAFAFA"/>
<path d="M265.714 167.155H263.47V169.397H265.714V167.155Z" fill="#FAFAFA"/>
<path d="M269.275 125.836H267.03V128.078H269.275V125.836Z" fill="#FAFAFA"/>
<path d="M269.275 129.586H267.03V131.827H269.275V129.586Z" fill="#FAFAFA"/>
<path d="M269.275 133.348H267.03V135.589H269.275V133.348Z" fill="#FAFAFA"/>
<path d="M269.275 137.097H267.03V139.339H269.275V137.097Z" fill="#FAFAFA"/>
<path d="M269.275 140.859H267.03V143.101H269.275V140.859Z" fill="#FAFAFA"/>
<path d="M269.275 144.621H267.03V146.863H269.275V144.621Z" fill="#FAFAFA"/>
<path d="M269.275 148.37H267.03V150.612H269.275V148.37Z" fill="#FAFAFA"/>
<path d="M269.275 152.132H267.03V154.374H269.275V152.132Z" fill="#FAFAFA"/>
<path d="M272.835 125.836H270.59V128.078H272.835V125.836Z" fill="#FAFAFA"/>
<path d="M272.835 129.586H270.59V131.827H272.835V129.586Z" fill="#FAFAFA"/>
<path d="M272.835 133.348H270.59V135.589H272.835V133.348Z" fill="#FAFAFA"/>
<path d="M272.835 137.097H270.59V139.339H272.835V137.097Z" fill="#FAFAFA"/>
<path d="M272.835 140.859H270.59V143.101H272.835V140.859Z" fill="#FAFAFA"/>
<path d="M272.835 144.621H270.59V146.863H272.835V144.621Z" fill="#FAFAFA"/>
<path d="M272.835 152.132H270.59V154.374H272.835V152.132Z" fill="#FAFAFA"/>
<path d="M272.835 155.894H270.59V158.136H272.835V155.894Z" fill="#FAFAFA"/>
<path d="M272.835 167.155H270.59V169.397H272.835V167.155Z" fill="#FAFAFA"/>
<path d="M272.835 170.917H270.59V173.159H272.835V170.917Z" fill="#FAFAFA"/>
<path d="M272.835 174.679H270.59V176.921H272.835V174.679Z" fill="#FAFAFA"/>
<path d="M272.835 178.428H270.59V180.67H272.835V178.428Z" fill="#FAFAFA"/>
<path d="M272.835 182.19H270.59V184.432H272.835V182.19Z" fill="#FAFAFA"/>
<path d="M272.835 185.939H270.59V188.181H272.835V185.939Z" fill="#FAFAFA"/>
<path d="M272.835 189.702H270.59V191.943H272.835V189.702Z" fill="#FAFAFA"/>
<path d="M276.395 125.836H274.151V128.078H276.395V125.836Z" fill="#FAFAFA"/>
<path d="M276.395 129.586H274.151V131.827H276.395V129.586Z" fill="#FAFAFA"/>
<path d="M276.395 133.348H274.151V135.589H276.395V133.348Z" fill="#FAFAFA"/>
<path d="M276.395 137.097H274.151V139.339H276.395V137.097Z" fill="#FAFAFA"/>
<path d="M276.395 140.859H274.151V143.101H276.395V140.859Z" fill="#FAFAFA"/>
<path d="M276.395 144.621H274.151V146.863H276.395V144.621Z" fill="#FAFAFA"/>
<path d="M276.395 155.894H274.151V158.136H276.395V155.894Z" fill="#FAFAFA"/>
<path d="M276.395 159.644H274.151V161.885H276.395V159.644Z" fill="#FAFAFA"/>
<path d="M276.395 163.406H274.151V165.647H276.395V163.406Z" fill="#FAFAFA"/>
<path d="M276.395 167.155H274.151V169.397H276.395V167.155Z" fill="#FAFAFA"/>
<path d="M276.395 170.917H274.151V173.159H276.395V170.917Z" fill="#FAFAFA"/>
<path d="M276.395 174.679H274.151V176.921H276.395V174.679Z" fill="#FAFAFA"/>
<path d="M276.395 178.428H274.151V180.67H276.395V178.428Z" fill="#FAFAFA"/>
<path d="M276.395 182.19H274.151V184.432H276.395V182.19Z" fill="#FAFAFA"/>
<path d="M276.395 185.939H274.151V188.181H276.395V185.939Z" fill="#FAFAFA"/>
<path d="M276.395 189.702H274.151V191.943H276.395V189.702Z" fill="#FAFAFA"/>
<path d="M276.395 193.464H274.151V195.705H276.395V193.464Z" fill="#FAFAFA"/>
<path d="M276.395 200.975H274.151V203.217H276.395V200.975Z" fill="#FAFAFA"/>
<path d="M279.969 125.836H277.724V128.078H279.969V125.836Z" fill="#FAFAFA"/>
<path d="M279.969 129.586H277.724V131.827H279.969V129.586Z" fill="#FAFAFA"/>
<path d="M279.969 133.348H277.724V135.589H279.969V133.348Z" fill="#FAFAFA"/>
<path d="M279.969 137.097H277.724V139.339H279.969V137.097Z" fill="#FAFAFA"/>
<path d="M279.969 140.859H277.724V143.101H279.969V140.859Z" fill="#FAFAFA"/>
<path d="M279.969 144.621H277.724V146.863H279.969V144.621Z" fill="#FAFAFA"/>
<path d="M279.969 155.894H277.724V158.136H279.969V155.894Z" fill="#FAFAFA"/>
<path d="M279.969 159.644H277.724V161.885H279.969V159.644Z" fill="#FAFAFA"/>
<path d="M279.969 163.406H277.724V165.647H279.969V163.406Z" fill="#FAFAFA"/>
<path d="M279.969 167.155H277.724V169.397H279.969V167.155Z" fill="#FAFAFA"/>
<path d="M279.969 178.428H277.724V180.67H279.969V178.428Z" fill="#FAFAFA"/>
<path d="M279.969 182.19H277.724V184.432H279.969V182.19Z" fill="#FAFAFA"/>
<path d="M279.969 185.939H277.724V188.181H279.969V185.939Z" fill="#FAFAFA"/>
<path d="M279.969 189.702H277.724V191.943H279.969V189.702Z" fill="#FAFAFA"/>
<path d="M279.969 193.464H277.724V195.705H279.969V193.464Z" fill="#FAFAFA"/>
<path d="M279.969 200.975H277.724V203.217H279.969V200.975Z" fill="#FAFAFA"/>
<path d="M279.969 204.724H277.724V206.966H279.969V204.724Z" fill="#FAFAFA"/>
<path d="M312.296 160.764H310.052V163.006H312.296V160.764Z" fill="#FAFAFA"/>
<path d="M312.296 164.526H310.052V166.768H312.296V164.526Z" fill="#FAFAFA"/>
<path d="M312.296 168.276H310.052V170.518H312.296V168.276Z" fill="#FAFAFA"/>
<path d="M312.296 172.038H310.052V174.28H312.296V172.038Z" fill="#FAFAFA"/>
<path d="M312.296 175.8H310.052V178.042H312.296V175.8Z" fill="#FAFAFA"/>
<path d="M312.296 179.549H310.052V181.791H312.296V179.549Z" fill="#FAFAFA"/>
<path d="M312.296 183.311H310.052V185.553H312.296V183.311Z" fill="#FAFAFA"/>
<path d="M312.296 194.584H310.052V196.826H312.296V194.584Z" fill="#FAFAFA"/>
<path d="M312.296 198.334H310.052V200.576H312.296V198.334Z" fill="#FAFAFA"/>
<path d="M312.296 202.096H310.052V204.338H312.296V202.096Z" fill="#FAFAFA"/>
<path d="M315.869 160.764H313.625V163.006H315.869V160.764Z" fill="#FAFAFA"/>
<path d="M315.869 164.526H313.625V166.768H315.869V164.526Z" fill="#FAFAFA"/>
<path d="M315.869 168.276H313.625V170.518H315.869V168.276Z" fill="#FAFAFA"/>
<path d="M315.869 172.038H313.625V174.28H315.869V172.038Z" fill="#FAFAFA"/>
<path d="M315.869 175.8H313.625V178.042H315.869V175.8Z" fill="#FAFAFA"/>
<path d="M315.869 179.549H313.625V181.791H315.869V179.549Z" fill="#FAFAFA"/>
<path d="M315.869 183.311H313.625V185.553H315.869V183.311Z" fill="#FAFAFA"/>
<path d="M320.41 160.764H317.185V163.006H320.41V160.764Z" fill="#FAFAFA"/>
<path d="M320.41 164.526H317.185V166.768H320.41V164.526Z" fill="#FAFAFA"/>
<path d="M320.41 168.276H317.185V170.518H320.41V168.276Z" fill="#FAFAFA"/>
<path d="M320.41 172.038H317.185V174.28H320.41V172.038Z" fill="#FAFAFA"/>
<path d="M320.41 175.8H317.185V178.042H320.41V175.8Z" fill="#FAFAFA"/>
<path d="M320.41 179.549H317.185V181.791H320.41V179.549Z" fill="#FAFAFA"/>
<path d="M320.41 183.311H317.185V185.553H320.41V183.311Z" fill="#FAFAFA"/>
<path d="M123.427 165.647H121.183V167.889H123.427V165.647Z" fill="#FAFAFA"/>
<path d="M123.427 169.397H121.183V171.638H123.427V169.397Z" fill="#FAFAFA"/>
<path d="M123.427 173.159H121.183V175.4H123.427V173.159Z" fill="#FAFAFA"/>
<path d="M123.427 176.908H121.183V179.15H123.427V176.908Z" fill="#FAFAFA"/>
<path d="M123.427 180.67H121.183V182.912H123.427V180.67Z" fill="#FAFAFA"/>
<path d="M123.427 184.432H121.183V186.674H123.427V184.432Z" fill="#FAFAFA"/>
<path d="M123.427 188.181H121.183V190.423H123.427V188.181Z" fill="#FAFAFA"/>
<path d="M123.427 191.943H121.183V194.185H123.427V191.943Z" fill="#FAFAFA"/>
<path d="M123.427 195.705H121.183V197.947H123.427V195.705Z" fill="#FAFAFA"/>
<path d="M123.427 199.455H121.183V201.696H123.427V199.455Z" fill="#FAFAFA"/>
<path d="M123.427 203.217H121.183V205.458H123.427V203.217Z" fill="#FAFAFA"/>
<path d="M123.427 206.966H121.183V209.208H123.427V206.966Z" fill="#FAFAFA"/>
<path d="M123.427 210.728H121.183V212.97H123.427V210.728Z" fill="#FAFAFA"/>
<path d="M123.427 214.49H121.183V216.732H123.427V214.49Z" fill="#FAFAFA"/>
<path d="M123.427 218.239H121.183V220.481H123.427V218.239Z" fill="#FAFAFA"/>
<path d="M123.427 222.001H121.183V224.243H123.427V222.001Z" fill="#FAFAFA"/>
<path d="M123.427 225.75H121.183V227.992H123.427V225.75Z" fill="#FAFAFA"/>
<path d="M123.427 229.513H121.183V231.754H123.427V229.513Z" fill="#FAFAFA"/>
<path d="M123.427 233.275H121.183V235.516H123.427V233.275Z" fill="#FAFAFA"/>
<path d="M123.427 237.024H121.183V239.266H123.427V237.024Z" fill="#FAFAFA"/>
<path d="M126.988 165.647H124.743V167.889H126.988V165.647Z" fill="#FAFAFA"/>
<path d="M126.988 169.397H124.743V171.638H126.988V169.397Z" fill="#FAFAFA"/>
<path d="M126.988 173.159H124.743V175.4H126.988V173.159Z" fill="#FAFAFA"/>
<path d="M126.988 176.908H124.743V179.15H126.988V176.908Z" fill="#FAFAFA"/>
<path d="M126.988 180.67H124.743V182.912H126.988V180.67Z" fill="#FAFAFA"/>
<path d="M126.988 184.432H124.743V186.674H126.988V184.432Z" fill="#FAFAFA"/>
<path d="M126.988 188.181H124.743V190.423H126.988V188.181Z" fill="#FAFAFA"/>
<path d="M126.988 191.943H124.743V194.185H126.988V191.943Z" fill="#FAFAFA"/>
<path d="M126.988 195.705H124.743V197.947H126.988V195.705Z" fill="#FAFAFA"/>
<path d="M126.988 199.455H124.743V201.696H126.988V199.455Z" fill="#FAFAFA"/>
<path d="M126.988 203.217H124.743V205.458H126.988V203.217Z" fill="#FAFAFA"/>
<path d="M126.988 206.966H124.743V209.208H126.988V206.966Z" fill="#FAFAFA"/>
<path d="M126.988 210.728H124.743V212.97H126.988V210.728Z" fill="#FAFAFA"/>
<path d="M126.988 214.49H124.743V216.732H126.988V214.49Z" fill="#FAFAFA"/>
<path d="M126.988 218.239H124.743V220.481H126.988V218.239Z" fill="#FAFAFA"/>
<path d="M126.988 222.001H124.743V224.243H126.988V222.001Z" fill="#FAFAFA"/>
<path d="M126.988 225.75H124.743V227.992H126.988V225.75Z" fill="#FAFAFA"/>
<path d="M126.988 229.513H124.743V231.754H126.988V229.513Z" fill="#FAFAFA"/>
<path d="M130.548 165.647H128.303V167.889H130.548V165.647Z" fill="#FAFAFA"/>
<path d="M130.548 169.397H128.303V171.638H130.548V169.397Z" fill="#FAFAFA"/>
<path d="M130.548 173.159H128.303V175.4H130.548V173.159Z" fill="#FAFAFA"/>
<path d="M130.548 176.908H128.303V179.15H130.548V176.908Z" fill="#FAFAFA"/>
<path d="M130.548 180.67H128.303V182.912H130.548V180.67Z" fill="#FAFAFA"/>
<path d="M130.548 184.432H128.303V186.674H130.548V184.432Z" fill="#FAFAFA"/>
<path d="M130.548 188.181H128.303V190.423H130.548V188.181Z" fill="#FAFAFA"/>
<path d="M130.548 191.943H128.303V194.185H130.548V191.943Z" fill="#FAFAFA"/>
<path d="M130.548 195.705H128.303V197.947H130.548V195.705Z" fill="#FAFAFA"/>
<path d="M130.548 199.455H128.303V201.696H130.548V199.455Z" fill="#FAFAFA"/>
<path d="M130.548 203.217H128.303V205.458H130.548V203.217Z" fill="#FAFAFA"/>
<path d="M130.548 206.966H128.303V209.208H130.548V206.966Z" fill="#FAFAFA"/>
<path d="M130.548 210.728H128.303V212.97H130.548V210.728Z" fill="#FAFAFA"/>
<path d="M130.548 214.49H128.303V216.732H130.548V214.49Z" fill="#FAFAFA"/>
<path d="M130.548 218.239H128.303V220.481H130.548V218.239Z" fill="#FAFAFA"/>
<path d="M130.548 222.001H128.303V224.243H130.548V222.001Z" fill="#FAFAFA"/>
<path d="M130.548 225.75H128.303V227.992H130.548V225.75Z" fill="#FAFAFA"/>
<path d="M130.548 229.513H128.303V231.754H130.548V229.513Z" fill="#FAFAFA"/>
<path d="M110.089 193.064H107.844V195.306H110.089V193.064Z" fill="#FAFAFA"/>
<path d="M110.089 196.826H107.844V199.068H110.089V196.826Z" fill="#FAFAFA"/>
<path d="M110.089 200.575H107.844V202.817H110.089V200.575Z" fill="#FAFAFA"/>
<path d="M110.089 204.338H107.844V206.579H110.089V204.338Z" fill="#FAFAFA"/>
<path d="M110.089 208.087H107.844V210.329H110.089V208.087Z" fill="#FAFAFA"/>
<path d="M110.089 211.849H107.844V214.091H110.089V211.849Z" fill="#FAFAFA"/>
<path d="M110.089 215.611H107.844V217.853H110.089V215.611Z" fill="#FAFAFA"/>
<path d="M110.089 219.36H107.844V221.602H110.089V219.36Z" fill="#FAFAFA"/>
<path d="M110.089 223.122H107.844V225.364H110.089V223.122Z" fill="#FAFAFA"/>
<path d="M110.089 226.871H107.844V229.113H110.089V226.871Z" fill="#FAFAFA"/>
<path d="M110.089 230.633H107.844V232.875H110.089V230.633Z" fill="#FAFAFA"/>
<path d="M110.089 234.396H107.844V236.637H110.089V234.396Z" fill="#FAFAFA"/>
<path d="M110.089 238.145H107.844V240.387H110.089V238.145Z" fill="#FAFAFA"/>
<path d="M113.649 193.064H111.404V195.306H113.649V193.064Z" fill="#FAFAFA"/>
<path d="M113.649 196.826H111.404V199.068H113.649V196.826Z" fill="#FAFAFA"/>
<path d="M113.649 200.575H111.404V202.817H113.649V200.575Z" fill="#FAFAFA"/>
<path d="M113.649 204.338H111.404V206.579H113.649V204.338Z" fill="#FAFAFA"/>
<path d="M113.649 208.087H111.404V210.329H113.649V208.087Z" fill="#FAFAFA"/>
<path d="M113.649 211.849H111.404V214.091H113.649V211.849Z" fill="#FAFAFA"/>
<path d="M113.649 215.611H111.404V217.853H113.649V215.611Z" fill="#FAFAFA"/>
<path d="M113.649 219.36H111.404V221.602H113.649V219.36Z" fill="#FAFAFA"/>
<path d="M113.649 223.122H111.404V225.364H113.649V223.122Z" fill="#FAFAFA"/>
<path d="M113.649 226.871H111.404V229.113H113.649V226.871Z" fill="#FAFAFA"/>
<path d="M113.649 230.633H111.404V232.875H113.649V230.633Z" fill="#FAFAFA"/>
<path d="M113.649 234.396H111.404V236.637H113.649V234.396Z" fill="#FAFAFA"/>
<path d="M113.649 238.145H111.404V240.387H113.649V238.145Z" fill="#FAFAFA"/>
<path d="M117.222 193.064H114.978V195.306H117.222V193.064Z" fill="#FAFAFA"/>
<path d="M117.222 196.826H114.978V199.068H117.222V196.826Z" fill="#FAFAFA"/>
<path d="M117.222 200.575H114.978V202.817H117.222V200.575Z" fill="#FAFAFA"/>
<path d="M117.222 204.338H114.978V206.579H117.222V204.338Z" fill="#FAFAFA"/>
<path d="M117.222 208.087H114.978V210.329H117.222V208.087Z" fill="#FAFAFA"/>
<path d="M117.222 211.849H114.978V214.091H117.222V211.849Z" fill="#FAFAFA"/>
<path d="M117.222 215.611H114.978V217.853H117.222V215.611Z" fill="#FAFAFA"/>
<path d="M117.222 219.36H114.978V221.602H117.222V219.36Z" fill="#FAFAFA"/>
<path d="M117.222 223.122H114.978V225.364H117.222V223.122Z" fill="#FAFAFA"/>
<path d="M117.222 226.871H114.978V229.113H117.222V226.871Z" fill="#FAFAFA"/>
<path d="M117.222 230.633H114.978V232.875H117.222V230.633Z" fill="#FAFAFA"/>
<path d="M117.222 234.396H114.978V236.637H117.222V234.396Z" fill="#FAFAFA"/>
<path d="M117.222 238.145H114.978V240.387H117.222V238.145Z" fill="#FAFAFA"/>
<path d="M117.222 241.907H114.978V244.149H117.222V241.907Z" fill="#FAFAFA"/>
<path d="M137.024 194.185H134.779V196.427H137.024V194.185Z" fill="#FAFAFA"/>
<path d="M137.024 197.934H134.779V200.176H137.024V197.934Z" fill="#FAFAFA"/>
<path d="M137.024 201.696H134.779V203.938H137.024V201.696Z" fill="#FAFAFA"/>
<path d="M137.024 205.458H134.779V207.7H137.024V205.458Z" fill="#FAFAFA"/>
<path d="M137.024 209.208H134.779V211.449H137.024V209.208Z" fill="#FAFAFA"/>
<path d="M137.024 212.97H134.779V215.212H137.024V212.97Z" fill="#FAFAFA"/>
<path d="M137.024 216.732H134.779V218.974H137.024V216.732Z" fill="#FAFAFA"/>
<path d="M137.024 220.481H134.779V222.723H137.024V220.481Z" fill="#FAFAFA"/>
<path d="M137.024 224.243H134.779V226.485H137.024V224.243Z" fill="#FAFAFA"/>
<path d="M137.024 227.992H134.779V230.234H137.024V227.992Z" fill="#FAFAFA"/>
<path d="M137.024 239.266H134.779V241.507H137.024V239.266Z" fill="#FAFAFA"/>
<path d="M140.584 194.185H138.34V196.427H140.584V194.185Z" fill="#FAFAFA"/>
<path d="M140.584 197.934H138.34V200.176H140.584V197.934Z" fill="#FAFAFA"/>
<path d="M140.584 201.696H138.34V203.938H140.584V201.696Z" fill="#FAFAFA"/>
<path d="M140.584 205.458H138.34V207.7H140.584V205.458Z" fill="#FAFAFA"/>
<path d="M140.584 209.208H138.34V211.449H140.584V209.208Z" fill="#FAFAFA"/>
<path d="M140.584 212.97H138.34V215.212H140.584V212.97Z" fill="#FAFAFA"/>
<path d="M140.584 216.732H138.34V218.974H140.584V216.732Z" fill="#FAFAFA"/>
<path d="M140.584 220.481H138.34V222.723H140.584V220.481Z" fill="#FAFAFA"/>
<path d="M140.584 224.243H138.34V226.485H140.584V224.243Z" fill="#FAFAFA"/>
<path d="M140.584 235.516H138.34V237.758H140.584V235.516Z" fill="#FAFAFA"/>
<path d="M140.584 239.266H138.34V241.507H140.584V239.266Z" fill="#FAFAFA"/>
<path d="M144.144 194.185H141.9V196.427H144.144V194.185Z" fill="#FAFAFA"/>
<path d="M144.144 197.934H141.9V200.176H144.144V197.934Z" fill="#FAFAFA"/>
<path d="M144.144 201.696H141.9V203.938H144.144V201.696Z" fill="#FAFAFA"/>
<path d="M144.144 205.458H141.9V207.7H144.144V205.458Z" fill="#FAFAFA"/>
<path d="M144.144 209.208H141.9V211.449H144.144V209.208Z" fill="#FAFAFA"/>
<path d="M144.144 212.97H141.9V215.212H144.144V212.97Z" fill="#FAFAFA"/>
<path d="M144.144 216.732H141.9V218.974H144.144V216.732Z" fill="#FAFAFA"/>
<path d="M144.144 220.481H141.9V222.723H144.144V220.481Z" fill="#FAFAFA"/>
<path d="M144.144 231.754H141.9V233.996H144.144V231.754Z" fill="#FAFAFA"/>
<path d="M144.144 235.516H141.9V237.758H144.144V235.516Z" fill="#FAFAFA"/>
<path d="M144.144 239.266H141.9V241.507H144.144V239.266Z" fill="#FAFAFA"/>
<path d="M177.272 137.097H175.027V139.339H177.272V137.097Z" fill="#FAFAFA"/>
<path d="M177.272 140.859H175.027V143.101H177.272V140.859Z" fill="#FAFAFA"/>
<path d="M177.272 144.621H175.027V146.863H177.272V144.621Z" fill="#FAFAFA"/>
<path d="M177.272 148.37H175.027V150.612H177.272V148.37Z" fill="#FAFAFA"/>
<path d="M177.272 152.132H175.027V154.374H177.272V152.132Z" fill="#FAFAFA"/>
<path d="M177.272 155.894H175.027V158.136H177.272V155.894Z" fill="#FAFAFA"/>
<path d="M177.272 159.644H175.027V161.885H177.272V159.644Z" fill="#FAFAFA"/>
<path d="M177.272 163.406H175.027V165.647H177.272V163.406Z" fill="#FAFAFA"/>
<path d="M177.272 167.155H175.027V169.397H177.272V167.155Z" fill="#FAFAFA"/>
<path d="M177.272 170.917H175.027V173.159H177.272V170.917Z" fill="#FAFAFA"/>
<path d="M177.272 174.679H175.027V176.921H177.272V174.679Z" fill="#FAFAFA"/>
<path d="M177.272 178.428H175.027V180.67H177.272V178.428Z" fill="#FAFAFA"/>
<path d="M177.272 182.19H175.027V184.432H177.272V182.19Z" fill="#FAFAFA"/>
<path d="M177.272 185.939H175.027V188.181H177.272V185.939Z" fill="#FAFAFA"/>
<path d="M177.272 189.702H175.027V191.943H177.272V189.702Z" fill="#FAFAFA"/>
<path d="M177.272 193.464H175.027V195.705H177.272V193.464Z" fill="#FAFAFA"/>
<path d="M177.272 197.213H175.027V199.455H177.272V197.213Z" fill="#FAFAFA"/>
<path d="M177.272 204.724H175.027V206.966H177.272V204.724Z" fill="#FAFAFA"/>
<path d="M177.272 208.486H175.027V210.728H177.272V208.486Z" fill="#FAFAFA"/>
<path d="M177.272 212.248H175.027V214.49H177.272V212.248Z" fill="#FAFAFA"/>
<path d="M177.272 215.997H175.027V218.239H177.272V215.997Z" fill="#FAFAFA"/>
<path d="M177.272 219.76H175.027V222.001H177.272V219.76Z" fill="#FAFAFA"/>
<path d="M180.832 137.097H178.588V139.339H180.832V137.097Z" fill="#FAFAFA"/>
<path d="M180.832 140.859H178.588V143.101H180.832V140.859Z" fill="#FAFAFA"/>
<path d="M180.832 144.621H178.588V146.863H180.832V144.621Z" fill="#FAFAFA"/>
<path d="M180.832 148.37H178.588V150.612H180.832V148.37Z" fill="#FAFAFA"/>
<path d="M180.832 152.132H178.588V154.374H180.832V152.132Z" fill="#FAFAFA"/>
<path d="M180.832 155.894H178.588V158.136H180.832V155.894Z" fill="#FAFAFA"/>
<path d="M180.832 159.644H178.588V161.885H180.832V159.644Z" fill="#FAFAFA"/>
<path d="M180.832 163.406H178.588V165.647H180.832V163.406Z" fill="#FAFAFA"/>
<path d="M180.832 167.155H178.588V169.397H180.832V167.155Z" fill="#FAFAFA"/>
<path d="M180.832 170.917H178.588V173.159H180.832V170.917Z" fill="#FAFAFA"/>
<path d="M180.832 174.679H178.588V176.921H180.832V174.679Z" fill="#FAFAFA"/>
<path d="M180.832 178.428H178.588V180.67H180.832V178.428Z" fill="#FAFAFA"/>
<path d="M180.832 182.19H178.588V184.432H180.832V182.19Z" fill="#FAFAFA"/>
<path d="M180.832 185.939H178.588V188.181H180.832V185.939Z" fill="#FAFAFA"/>
<path d="M180.832 189.702H178.588V191.943H180.832V189.702Z" fill="#FAFAFA"/>
<path d="M180.832 193.464H178.588V195.705H180.832V193.464Z" fill="#FAFAFA"/>
<path d="M180.832 215.997H178.588V218.239H180.832V215.997Z" fill="#FAFAFA"/>
<path d="M180.832 219.76H178.588V222.001H180.832V219.76Z" fill="#FAFAFA"/>
<path d="M184.405 137.097H182.161V139.339H184.405V137.097Z" fill="#FAFAFA"/>
<path d="M184.405 140.859H182.161V143.101H184.405V140.859Z" fill="#FAFAFA"/>
<path d="M184.405 144.621H182.161V146.863H184.405V144.621Z" fill="#FAFAFA"/>
<path d="M184.405 148.37H182.161V150.612H184.405V148.37Z" fill="#FAFAFA"/>
<path d="M184.405 152.132H182.161V154.374H184.405V152.132Z" fill="#FAFAFA"/>
<path d="M184.405 155.894H182.161V158.136H184.405V155.894Z" fill="#FAFAFA"/>
<path d="M184.405 159.644H182.161V161.885H184.405V159.644Z" fill="#FAFAFA"/>
<path d="M184.405 163.406H182.161V165.647H184.405V163.406Z" fill="#FAFAFA"/>
<path d="M184.405 167.155H182.161V169.397H184.405V167.155Z" fill="#FAFAFA"/>
<path d="M184.405 170.917H182.161V173.159H184.405V170.917Z" fill="#FAFAFA"/>
<path d="M184.405 174.679H182.161V176.921H184.405V174.679Z" fill="#FAFAFA"/>
<path d="M184.405 178.428H182.161V180.67H184.405V178.428Z" fill="#FAFAFA"/>
<path d="M184.405 182.19H182.161V184.432H184.405V182.19Z" fill="#FAFAFA"/>
<path d="M184.405 185.939H182.161V188.181H184.405V185.939Z" fill="#FAFAFA"/>
<path d="M184.405 189.702H182.161V191.943H184.405V189.702Z" fill="#FAFAFA"/>
<path d="M184.405 193.464H182.161V195.705H184.405V193.464Z" fill="#FAFAFA"/>
<path d="M184.405 200.975H182.161V203.217H184.405V200.975Z" fill="#FAFAFA"/>
<path d="M184.405 204.724H182.161V206.966H184.405V204.724Z" fill="#FAFAFA"/>
<path d="M184.405 208.486H182.161V210.728H184.405V208.486Z" fill="#FAFAFA"/>
<path d="M184.405 212.248H182.161V214.49H184.405V212.248Z" fill="#FAFAFA"/>
<path d="M184.405 219.76H182.161V222.001H184.405V219.76Z" fill="#FAFAFA"/>
<path d="M164.333 184.432H162.088V186.674H164.333V184.432Z" fill="#FAFAFA"/>
<path d="M164.333 188.181H162.088V190.423H164.333V188.181Z" fill="#FAFAFA"/>
<path d="M164.333 191.943H162.088V194.185H164.333V191.943Z" fill="#FAFAFA"/>
<path d="M164.333 195.705H162.088V197.947H164.333V195.705Z" fill="#FAFAFA"/>
<path d="M164.333 199.455H162.088V201.696H164.333V199.455Z" fill="#FAFAFA"/>
<path d="M164.333 203.217H162.088V205.458H164.333V203.217Z" fill="#FAFAFA"/>
<path d="M164.333 206.966H162.088V209.208H164.333V206.966Z" fill="#FAFAFA"/>
<path d="M164.333 214.49H162.088V216.732H164.333V214.49Z" fill="#FAFAFA"/>
<path d="M164.333 218.239H162.088V220.481H164.333V218.239Z" fill="#FAFAFA"/>
<path d="M164.333 222.001H162.088V224.243H164.333V222.001Z" fill="#FAFAFA"/>
<path d="M164.333 225.75H162.088V227.992H164.333V225.75Z" fill="#FAFAFA"/>
<path d="M164.333 229.513H162.088V231.754H164.333V229.513Z" fill="#FAFAFA"/>
<path d="M164.333 233.275H162.088V235.516H164.333V233.275Z" fill="#FAFAFA"/>
<path d="M164.333 237.024H162.088V239.266H164.333V237.024Z" fill="#FAFAFA"/>
<path d="M164.333 240.786H162.088V243.028H164.333V240.786Z" fill="#FAFAFA"/>
<path d="M167.906 184.432H165.662V186.674H167.906V184.432Z" fill="#FAFAFA"/>
<path d="M167.906 188.181H165.662V190.423H167.906V188.181Z" fill="#FAFAFA"/>
<path d="M167.906 191.943H165.662V194.185H167.906V191.943Z" fill="#FAFAFA"/>
<path d="M167.906 195.705H165.662V197.947H167.906V195.705Z" fill="#FAFAFA"/>
<path d="M167.906 199.455H165.662V201.696H167.906V199.455Z" fill="#FAFAFA"/>
<path d="M167.906 203.217H165.662V205.458H167.906V203.217Z" fill="#FAFAFA"/>
<path d="M167.906 214.49H165.662V216.732H167.906V214.49Z" fill="#FAFAFA"/>
<path d="M167.906 218.239H165.662V220.481H167.906V218.239Z" fill="#FAFAFA"/>
<path d="M167.906 222.001H165.662V224.243H167.906V222.001Z" fill="#FAFAFA"/>
<path d="M167.906 225.75H165.662V227.992H167.906V225.75Z" fill="#FAFAFA"/>
<path d="M167.906 229.513H165.662V231.754H167.906V229.513Z" fill="#FAFAFA"/>
<path d="M167.906 233.275H165.662V235.516H167.906V233.275Z" fill="#FAFAFA"/>
<path d="M167.906 237.024H165.662V239.266H167.906V237.024Z" fill="#FAFAFA"/>
<path d="M167.906 240.786H165.662V243.028H167.906V240.786Z" fill="#FAFAFA"/>
<path d="M171.467 184.432H169.222V186.674H171.467V184.432Z" fill="#FAFAFA"/>
<path d="M171.467 188.181H169.222V190.423H171.467V188.181Z" fill="#FAFAFA"/>
<path d="M171.467 191.943H169.222V194.185H171.467V191.943Z" fill="#FAFAFA"/>
<path d="M171.467 195.705H169.222V197.947H171.467V195.705Z" fill="#FAFAFA"/>
<path d="M171.467 199.455H169.222V201.696H171.467V199.455Z" fill="#FAFAFA"/>
<path d="M171.467 203.217H169.222V205.458H171.467V203.217Z" fill="#FAFAFA"/>
<path d="M171.467 210.728H169.222V212.97H171.467V210.728Z" fill="#FAFAFA"/>
<path d="M171.467 214.49H169.222V216.732H171.467V214.49Z" fill="#FAFAFA"/>
<path d="M171.467 218.239H169.222V220.481H171.467V218.239Z" fill="#FAFAFA"/>
<path d="M171.467 222.001H169.222V224.243H171.467V222.001Z" fill="#FAFAFA"/>
<path d="M171.467 225.75H169.222V227.992H171.467V225.75Z" fill="#FAFAFA"/>
<path d="M171.467 229.513H169.222V231.754H171.467V229.513Z" fill="#FAFAFA"/>
<path d="M171.467 233.275H169.222V235.516H171.467V233.275Z" fill="#FAFAFA"/>
<path d="M171.467 237.024H169.222V239.266H171.467V237.024Z" fill="#FAFAFA"/>
<path d="M171.467 240.786H169.222V243.028H171.467V240.786Z" fill="#FAFAFA"/>
<path d="M246.571 163.406H244.326V165.647H246.571V163.406Z" fill="#FAFAFA"/>
<path d="M246.571 167.155H244.326V169.397H246.571V167.155Z" fill="#FAFAFA"/>
<path d="M246.571 170.917H244.326V173.159H246.571V170.917Z" fill="#FAFAFA"/>
<path d="M246.571 174.679H244.326V176.921H246.571V174.679Z" fill="#FAFAFA"/>
<path d="M246.571 178.428H244.326V180.67H246.571V178.428Z" fill="#FAFAFA"/>
<path d="M246.571 182.19H244.326V184.432H246.571V182.19Z" fill="#FAFAFA"/>
<path d="M246.571 185.939H244.326V188.181H246.571V185.939Z" fill="#FAFAFA"/>
<path d="M246.571 189.702H244.326V191.943H246.571V189.702Z" fill="#FAFAFA"/>
<path d="M246.571 193.464H244.326V195.705H246.571V193.464Z" fill="#FAFAFA"/>
<path d="M246.571 197.213H244.326V199.455H246.571V197.213Z" fill="#FAFAFA"/>
<path d="M246.571 200.975H244.326V203.217H246.571V200.975Z" fill="#FAFAFA"/>
<path d="M246.571 204.724H244.326V206.966H246.571V204.724Z" fill="#FAFAFA"/>
<path d="M246.571 208.486H244.326V210.728H246.571V208.486Z" fill="#FAFAFA"/>
<path d="M246.571 215.997H244.326V218.239H246.571V215.997Z" fill="#FAFAFA"/>
<path d="M246.571 219.76H244.326V222.001H246.571V219.76Z" fill="#FAFAFA"/>
<path d="M246.571 223.509H244.326V225.75H246.571V223.509Z" fill="#FAFAFA"/>
<path d="M246.571 227.271H244.326V229.513H246.571V227.271Z" fill="#FAFAFA"/>
<path d="M246.571 234.782H244.326V237.024H246.571V234.782Z" fill="#FAFAFA"/>
<path d="M246.571 238.544H244.326V240.786H246.571V238.544Z" fill="#FAFAFA"/>
<path d="M246.571 242.293H244.326V244.535H246.571V242.293Z" fill="#FAFAFA"/>
<path d="M250.131 163.406H247.886V165.647H250.131V163.406Z" fill="#FAFAFA"/>
<path d="M250.131 167.155H247.886V169.397H250.131V167.155Z" fill="#FAFAFA"/>
<path d="M250.131 170.917H247.886V173.159H250.131V170.917Z" fill="#FAFAFA"/>
<path d="M250.131 174.679H247.886V176.921H250.131V174.679Z" fill="#FAFAFA"/>
<path d="M250.131 178.428H247.886V180.67H250.131V178.428Z" fill="#FAFAFA"/>
<path d="M250.131 182.19H247.886V184.432H250.131V182.19Z" fill="#FAFAFA"/>
<path d="M250.131 185.939H247.886V188.181H250.131V185.939Z" fill="#FAFAFA"/>
<path d="M250.131 189.702H247.886V191.943H250.131V189.702Z" fill="#FAFAFA"/>
<path d="M250.131 193.464H247.886V195.705H250.131V193.464Z" fill="#FAFAFA"/>
<path d="M250.131 197.213H247.886V199.455H250.131V197.213Z" fill="#FAFAFA"/>
<path d="M250.131 200.975H247.886V203.217H250.131V200.975Z" fill="#FAFAFA"/>
<path d="M250.131 204.724H247.886V206.966H250.131V204.724Z" fill="#FAFAFA"/>
<path d="M250.131 208.486H247.886V210.728H250.131V208.486Z" fill="#FAFAFA"/>
<path d="M250.131 219.76H247.886V222.001H250.131V219.76Z" fill="#FAFAFA"/>
<path d="M250.131 223.509H247.886V225.75H250.131V223.509Z" fill="#FAFAFA"/>
<path d="M250.131 231.033H247.886V233.275H250.131V231.033Z" fill="#FAFAFA"/>
<path d="M250.131 234.782H247.886V237.024H250.131V234.782Z" fill="#FAFAFA"/>
<path d="M250.131 238.544H247.886V240.786H250.131V238.544Z" fill="#FAFAFA"/>
<path d="M250.131 242.293H247.886V244.535H250.131V242.293Z" fill="#FAFAFA"/>
<path d="M253.691 163.406H251.447V165.647H253.691V163.406Z" fill="#FAFAFA"/>
<path d="M253.691 167.155H251.447V169.397H253.691V167.155Z" fill="#FAFAFA"/>
<path d="M253.691 170.917H251.447V173.159H253.691V170.917Z" fill="#FAFAFA"/>
<path d="M253.691 174.679H251.447V176.921H253.691V174.679Z" fill="#FAFAFA"/>
<path d="M253.691 178.428H251.447V180.67H253.691V178.428Z" fill="#FAFAFA"/>
<path d="M253.691 182.19H251.447V184.432H253.691V182.19Z" fill="#FAFAFA"/>
<path d="M253.691 185.939H251.447V188.181H253.691V185.939Z" fill="#FAFAFA"/>
<path d="M253.691 189.702H251.447V191.943H253.691V189.702Z" fill="#FAFAFA"/>
<path d="M253.691 193.464H251.447V195.705H253.691V193.464Z" fill="#FAFAFA"/>
<path d="M253.691 197.213H251.447V199.455H253.691V197.213Z" fill="#FAFAFA"/>
<path d="M253.691 200.975H251.447V203.217H253.691V200.975Z" fill="#FAFAFA"/>
<path d="M253.691 204.724H251.447V206.966H253.691V204.724Z" fill="#FAFAFA"/>
<path d="M253.691 208.486H251.447V210.728H253.691V208.486Z" fill="#FAFAFA"/>
<path d="M253.691 212.248H251.447V214.49H253.691V212.248Z" fill="#FAFAFA"/>
<path d="M253.691 219.76H251.447V222.001H253.691V219.76Z" fill="#FAFAFA"/>
<path d="M253.691 227.271H251.447V229.513H253.691V227.271Z" fill="#FAFAFA"/>
<path d="M253.691 231.033H251.447V233.275H253.691V231.033Z" fill="#FAFAFA"/>
<path d="M253.691 234.782H251.447V237.024H253.691V234.782Z" fill="#FAFAFA"/>
<path d="M253.691 238.544H251.447V240.786H253.691V238.544Z" fill="#FAFAFA"/>
<path d="M253.691 242.293H251.447V244.535H253.691V242.293Z" fill="#FAFAFA"/>
<path d="M232.045 184.819H229.801V187.06H232.045V184.819Z" fill="#FAFAFA"/>
<path d="M232.045 188.581H229.801V190.822H232.045V188.581Z" fill="#FAFAFA"/>
<path d="M232.045 192.343H229.801V194.585H232.045V192.343Z" fill="#FAFAFA"/>
<path d="M232.045 196.092H229.801V198.334H232.045V196.092Z" fill="#FAFAFA"/>
<path d="M232.045 199.854H229.801V202.096H232.045V199.854Z" fill="#FAFAFA"/>
<path d="M232.045 203.603H229.801V205.845H232.045V203.603Z" fill="#FAFAFA"/>
<path d="M232.045 214.877H229.801V217.118H232.045V214.877Z" fill="#FAFAFA"/>
<path d="M232.045 218.639H229.801V220.88H232.045V218.639Z" fill="#FAFAFA"/>
<path d="M232.045 222.388H229.801V224.63H232.045V222.388Z" fill="#FAFAFA"/>
<path d="M232.045 226.15H229.801V228.392H232.045V226.15Z" fill="#FAFAFA"/>
<path d="M232.045 229.912H229.801V232.154H232.045V229.912Z" fill="#FAFAFA"/>
<path d="M232.045 233.661H229.801V235.903H232.045V233.661Z" fill="#FAFAFA"/>
<path d="M232.045 237.423H229.801V239.665H232.045V237.423Z" fill="#FAFAFA"/>
<path d="M235.619 184.819H233.374V187.06H235.619V184.819Z" fill="#FAFAFA"/>
<path d="M235.619 188.581H233.374V190.822H235.619V188.581Z" fill="#FAFAFA"/>
<path d="M235.619 192.343H233.374V194.585H235.619V192.343Z" fill="#FAFAFA"/>
<path d="M235.619 196.092H233.374V198.334H235.619V196.092Z" fill="#FAFAFA"/>
<path d="M235.619 199.854H233.374V202.096H235.619V199.854Z" fill="#FAFAFA"/>
<path d="M235.619 203.603H233.374V205.845H235.619V203.603Z" fill="#FAFAFA"/>
<path d="M235.619 214.877H233.374V217.118H235.619V214.877Z" fill="#FAFAFA"/>
<path d="M235.619 218.639H233.374V220.88H235.619V218.639Z" fill="#FAFAFA"/>
<path d="M235.619 222.388H233.374V224.63H235.619V222.388Z" fill="#FAFAFA"/>
<path d="M235.619 226.15H233.374V228.392H235.619V226.15Z" fill="#FAFAFA"/>
<path d="M235.619 229.912H233.374V232.154H235.619V229.912Z" fill="#FAFAFA"/>
<path d="M235.619 233.661H233.374V235.903H235.619V233.661Z" fill="#FAFAFA"/>
<path d="M235.619 241.185H233.374V243.427H235.619V241.185Z" fill="#FAFAFA"/>
<path d="M321.016 61.9712H316.566V306.107H321.016V61.9712Z" fill="#EBEBEB"/>
<path d="M249.486 61.9712H245.719V306.107H249.486V61.9712Z" fill="#EBEBEB"/>
<path d="M178.639 61.9712H174.873V306.107H178.639V61.9712Z" fill="#EBEBEB"/>
<path d="M444.921 71.6341C455.016 71.6341 463.2 63.4604 463.2 53.3777C463.2 43.295 455.016 35.1213 444.921 35.1213C434.826 35.1213 426.642 43.295 426.642 53.3777C426.642 63.4604 434.826 71.6341 444.921 71.6341Z" fill="#E0E0E0"/>
<path d="M460.453 53.3777C460.453 56.4355 459.545 59.4247 457.844 61.9672C456.143 64.5096 453.725 66.4913 450.897 67.6614C448.068 68.8316 444.956 69.1378 441.953 68.5412C438.95 67.9447 436.192 66.4722 434.027 64.31C431.862 62.1478 430.387 59.393 429.79 56.3939C429.193 53.3949 429.499 50.2863 430.671 47.4612C431.843 44.6361 433.827 42.2215 436.372 40.5227C438.918 38.8239 441.911 37.9171 444.973 37.9171C449.078 37.9171 453.016 39.546 455.919 42.4454C458.822 45.3448 460.453 49.2773 460.453 53.3777Z" fill="#F0F0F0"/>
<path d="M444.186 42.7357V53.5839L436.988 49.5126" fill="#F0F0F0"/>
<path d="M444.186 54.8722C443.964 54.8715 443.746 54.8139 443.554 54.7047L436.356 50.6334C436.058 50.4626 435.84 50.1806 435.751 49.8496C435.661 49.5186 435.707 49.1656 435.878 48.8684C436.049 48.5711 436.332 48.3538 436.663 48.2644C436.994 48.175 437.348 48.2208 437.646 48.3916L442.922 51.3807V42.7356C442.922 42.3939 443.057 42.0662 443.299 41.8246C443.541 41.583 443.869 41.4473 444.212 41.4473C444.554 41.4473 444.882 41.583 445.124 41.8246C445.366 42.0662 445.502 42.3939 445.502 42.7356V53.5838C445.503 53.8109 445.443 54.0341 445.33 54.2309C445.217 54.4278 445.053 54.5912 444.857 54.7047C444.652 54.8205 444.42 54.8784 444.186 54.8722Z" fill="#E0E0E0"/>
<path d="M536.15 82.843H455.344V189.367H536.15V82.843Z" fill="#F5F5F5"/>
<path d="M482.834 94.1808V141.014L501.513 139.957L503.655 94.1808H482.834Z" fill="#EBEBEB"/>
<path d="M497.953 103.238H526.694L526.449 144.235L511.563 144.466L497.953 103.238Z" fill="#E0E0E0"/>
<path d="M469.973 97.1957H477.532L474.888 133.773L465.432 136.118L469.973 97.1957Z" fill="#E6E6E6"/>
<path d="M362.954 202.366H443.502V104.475L362.954 104.475V202.366Z" fill="#E6E6E6"/>
<path d="M381.389 178.119L423.713 136.569L377.918 129.019L381.389 178.119Z" fill="#E0E0E0"/>
<path d="M422.694 168.263L424.784 136.401L392.921 144.222L390.599 168.598L422.694 168.263Z" fill="#F0F0F0"/>
<path d="M390.09 132.507C395.113 127.491 395.113 119.358 390.09 114.341C385.068 109.325 376.924 109.325 371.902 114.341C366.879 119.358 366.879 127.491 371.902 132.507C376.924 137.523 385.068 137.523 390.09 132.507Z" fill="#FAFAFA"/>
<path d="M418.528 179.626C418.528 178.393 418.894 177.187 419.58 176.162C420.266 175.137 421.241 174.337 422.382 173.865C423.523 173.393 424.778 173.27 425.989 173.51C427.2 173.751 428.313 174.345 429.186 175.217C430.059 176.089 430.654 177.2 430.895 178.41C431.136 179.619 431.012 180.873 430.54 182.013C430.067 183.152 429.267 184.126 428.24 184.811C427.213 185.496 426.006 185.862 424.771 185.862C423.115 185.862 421.527 185.205 420.356 184.036C419.185 182.866 418.528 181.28 418.528 179.626Z" fill="#E0E0E0"/>
<path d="M423.288 190.578L405.266 179.626L420.411 167.168L423.288 190.578Z" fill="#F5F5F5"/>
<path d="M402.016 116.921H398.468V195.087H402.016V116.921Z" fill="#E0E0E0"/>
<path d="M435.943 116.921H431.363V191.634H435.943V116.921Z" fill="#EBEBEB"/>
<path d="M394.456 168.598H371.043V191.982H394.456V168.598Z" fill="#EBEBEB"/>
<path d="M530.693 332.892H446.043V409.719H530.693V332.892Z" fill="#E6E6E6"/>
<path d="M543.632 326.128H532.989V421.533H543.632V326.128Z" fill="#E6E6E6"/>
<path d="M466.464 340.056H459.524V367.614H466.464V340.056Z" fill="#FAFAFA"/>
<path d="M495.218 340.056H488.278V367.614H495.218V340.056Z" fill="#F5F5F5"/>
<path d="M473.391 342.452H466.451V367.627H473.391V342.452Z" fill="#F5F5F5"/>
<path d="M488.278 342.452H481.338V367.627H488.278V342.452Z" fill="#FAFAFA"/>
<path d="M481.338 340.056H476.861V367.614H481.338V340.056Z" fill="#EBEBEB"/>
<path d="M476.861 342.452H473.391V367.627H476.861V342.452Z" fill="#FAFAFA"/>
<path d="M502.158 340.056H495.218V367.614H502.158V340.056Z" fill="#EBEBEB"/>
<path d="M509.098 342.452H502.158V367.627H509.098V342.452Z" fill="#E6E6E6"/>
<path d="M523.985 342.452H517.045V367.627H523.985V342.452Z" fill="#E6E6E6"/>
<path d="M517.032 340.056H512.556V367.614H517.032V340.056Z" fill="#FAFAFA"/>
<path d="M512.556 342.452H509.086V367.627H512.556V342.452Z" fill="#EBEBEB"/>
<path d="M527.442 340.868H523.972V367.627H527.442V340.868Z" fill="#FAFAFA"/>
<path d="M520.515 405.454H527.455V379.184H520.515V405.454Z" fill="#FAFAFA"/>
<path d="M491.748 405.454H498.688V379.184H491.748V405.454Z" fill="#FAFAFA"/>
<path d="M513.562 405.467H520.502V381.58H513.562V405.467Z" fill="#F0F0F0"/>
<path d="M498.675 405.467H505.615V381.58H498.675V405.467Z" fill="#EBEBEB"/>
<path d="M505.628 405.454H510.104V379.184H505.628V405.454Z" fill="#FAFAFA"/>
<path d="M510.105 405.467H513.575V381.58H510.105V405.467Z" fill="#F5F5F5"/>
<path d="M484.808 405.454H491.748V379.184H484.808V405.454Z" fill="#EBEBEB"/>
<path d="M477.867 405.467H484.808V381.58H477.867V405.467Z" fill="#F5F5F5"/>
<path d="M462.981 405.467H469.921V381.58H462.981V405.467Z" fill="#E6E6E6"/>
<path d="M469.934 405.454H474.41V379.184H469.934V405.454Z" fill="#FAFAFA"/>
<path d="M455.048 405.454H459.524V379.184H455.048V405.454Z" fill="#FAFAFA"/>
<path d="M474.398 405.467H477.868V381.58H474.398V405.467Z" fill="#EBEBEB"/>
<path d="M459.511 405.467H462.981V379.996H459.511V405.467Z" fill="#F0F0F0"/>
<path d="M530.267 326.128H443.36V415.388H527.429V421.52H533.105V326.18L530.267 326.128ZM527.429 405.467H448.739V373.322H527.429V405.467ZM527.429 367.653H448.739V336.036H527.429V367.653Z" fill="#F0F0F0"/>
<path d="M361.265 409.719H445.914V332.892H361.265V409.719Z" fill="#E6E6E6"/>
<path d="M364.515 421.52H375.158V414.267H364.515V421.52Z" fill="#E6E6E6"/>
<path d="M436.11 367.614H443.051V340.056H436.11V367.614Z" fill="#FAFAFA"/>
<path d="M407.356 367.614H414.296V340.056H407.356V367.614Z" fill="#F5F5F5"/>
<path d="M429.183 367.614H436.123V342.439H429.183V367.614Z" fill="#F5F5F5"/>
<path d="M414.296 367.614H421.237V342.439H414.296V367.614Z" fill="#FAFAFA"/>
<path d="M421.237 367.614H425.713V340.056H421.237V367.614Z" fill="#EBEBEB"/>
<path d="M425.713 367.614H429.183V342.439H425.713V367.614Z" fill="#FAFAFA"/>
<path d="M404.995 367.614H411.936V340.056H404.995V367.614Z" fill="#EBEBEB"/>
<path d="M398.055 367.614H404.996V342.439H398.055V367.614Z" fill="#E6E6E6"/>
<path d="M383.169 367.614H390.109V342.439H383.169V367.614Z" fill="#E6E6E6"/>
<path d="M390.122 367.614H394.598V340.056H390.122V367.614Z" fill="#FAFAFA"/>
<path d="M394.585 367.614H398.055V342.439H394.585V367.614Z" fill="#EBEBEB"/>
<path d="M379.712 367.614H383.182V340.855H379.712V367.614Z" fill="#F5F5F5"/>
<path d="M383.388 379.197H376.448V405.467H383.388V379.197Z" fill="#FAFAFA"/>
<path d="M412.142 379.197H405.202V405.467H412.142V379.197Z" fill="#FAFAFA"/>
<path d="M390.328 381.58H383.388V405.467H390.328V381.58Z" fill="#F5F5F5"/>
<path d="M405.215 381.58H398.274V405.467H405.215V381.58Z" fill="#EBEBEB"/>
<path d="M398.262 379.197H393.785V405.467H398.262V379.197Z" fill="#FAFAFA"/>
<path d="M393.786 381.58H390.315V405.467H393.786V381.58Z" fill="#F5F5F5"/>
<path d="M414.516 379.197H407.575V405.467H414.516V379.197Z" fill="#EBEBEB"/>
<path d="M421.443 381.58H414.503V405.467H421.443V381.58Z" fill="#F5F5F5"/>
<path d="M436.33 381.58H429.389V405.467H436.33V381.58Z" fill="#E6E6E6"/>
<path d="M429.389 379.197H424.913V405.467H429.389V379.197Z" fill="#FAFAFA"/>
<path d="M443.36 379.197H438.884V405.467H443.36V379.197Z" fill="#FAFAFA"/>
<path d="M424.913 381.58H421.443V405.467H424.913V381.58Z" fill="#EBEBEB"/>
<path d="M439.8 379.996H436.33V405.467H439.8V379.996Z" fill="#EBEBEB"/>
<path d="M358.839 326.128V421.469H364.515V415.336H448.585V326.128H358.839ZM364.515 373.322H443.205V405.467H364.515V373.322ZM364.515 336.036H443.205V367.653H364.515V336.036Z" fill="#F0F0F0"/>
<path d="M322.5 480C460.636 480 572.618 473.47 572.618 465.416C572.618 457.361 460.636 450.831 322.5 450.831C184.364 450.831 72.3818 457.361 72.3818 465.416C72.3818 473.47 184.364 480 322.5 480Z" fill="#F5F5F5"/>
<path d="M492.844 409.216C492.844 409.216 482.834 397.337 476.436 402.877C470.037 408.417 473.275 420.18 480.654 420.567C485.03 420.803 489.349 419.484 492.844 416.843V409.216Z" fill="#407BFF"/>
<path opacity="0.2" d="M492.844 409.216C492.844 409.216 482.834 397.337 476.436 402.877C470.037 408.417 473.275 420.18 480.654 420.567C485.03 420.803 489.349 419.484 492.844 416.843V409.216Z" fill="white"/>
<path d="M533.647 379.068C533.647 379.068 542.045 370.281 547.244 371.776C552.443 373.27 551.914 394.258 535.776 385.755L533.647 379.068Z" fill="#407BFF"/>
<path opacity="0.3" d="M533.647 379.068C533.647 379.068 542.045 370.281 547.244 371.776C552.443 373.27 551.914 394.258 535.776 385.755L533.647 379.068Z" fill="white"/>
<path d="M503.642 444.634C503.642 444.634 476.036 406.923 498.482 399.283C520.928 391.643 524.888 429.624 518.49 440.202C512.091 450.78 503.642 444.634 503.642 444.634Z" fill="#407BFF"/>
<path d="M516.439 367.421C516.439 367.421 533.57 327.713 508.208 326.515C482.847 325.317 480.073 365.888 509.266 371.776L516.439 367.421Z" fill="#407BFF"/>
<path opacity="0.3" d="M503.642 444.634C503.642 444.634 476.036 406.923 498.482 399.283C520.928 391.643 524.888 429.624 518.49 440.202C512.091 450.78 503.642 444.634 503.642 444.634Z" fill="white"/>
<path opacity="0.3" d="M516.439 367.421C516.439 367.421 533.57 327.713 508.208 326.515C482.847 325.317 480.073 365.888 509.266 371.776L516.439 367.421Z" fill="white"/>
<path d="M510.363 399.927C510.363 399.927 502.042 364.87 518.103 362.074C534.163 359.279 549.901 390.96 516.813 406.884C516.735 406.884 511.059 403.367 510.363 399.927Z" fill="#407BFF"/>
<path opacity="0.2" d="M510.363 399.927C510.363 399.927 502.042 364.87 518.103 362.074C534.163 359.279 549.901 390.96 516.813 406.884C516.735 406.884 511.059 403.367 510.363 399.927Z" fill="white"/>
<path d="M483.776 439.287H530.113L526.243 468.907H487.646L483.776 439.287Z" fill="#263238"/>
<path d="M507.873 364.612C498.327 357.642 491.709 344.166 497.347 332.815C497.114 333.872 496.831 335.018 496.573 336.075C494.689 346.833 500.597 357.101 507.873 364.612Z" fill="#407BFF"/>
<path d="M501.81 330.509C512.814 332.738 517.677 344.398 516.4 354.666C516.155 356.122 515.948 357.552 515.652 358.982C515.796 356.106 515.766 353.223 515.561 350.35C514.878 341.885 510.208 333.601 501.81 330.509Z" fill="#407BFF"/>
<path d="M521.16 364.612C527.339 366.79 531.209 373.567 531.222 379.983C531.222 385.574 528.126 390.651 524.669 394.825C522.149 397.856 519.268 400.569 516.09 402.903C518.897 400.214 521.485 397.306 523.83 394.207C526.707 390.341 529.235 386.154 529.868 381.387C530.409 374.765 527.171 367.705 521.096 364.638L521.16 364.612Z" fill="#407BFF"/>
<path d="M516.439 367.421C518.09 372.575 519.561 378.695 516.877 383.745C514.633 387.017 514.401 391.295 514.297 395.199C514.297 396.564 514.298 397.917 514.388 399.283C513.729 396.607 513.43 393.856 513.498 391.102C513.454 388.263 514.229 385.473 515.729 383.062C518.206 378.347 517.019 372.51 516.387 367.421H516.439Z" fill="#407BFF"/>
<path d="M505.19 402.877C511.64 406.189 514.22 428.426 513.975 435.422C513.781 434.005 513.562 432.6 513.291 431.196C512.066 424.187 510.789 417.153 508.931 410.286C508.067 407.709 507.512 404.539 505.19 402.877Z" fill="#407BFF"/>
<path d="M497.347 404.101C495.793 409.15 495.555 414.511 496.657 419.676C497.758 424.842 500.163 429.641 503.642 433.618C502.618 432.742 501.649 431.804 500.739 430.81C497.622 427.176 495.64 422.71 495.037 417.963C494.434 413.216 495.237 408.397 497.347 404.101Z" fill="#407BFF"/>
<path d="M540.162 383.346C543.103 382.56 545.605 381.851 547.747 379.687C547.218 382.972 543.038 384.518 540.162 383.346Z" fill="#407BFF"/>
<path d="M538.446 377.561C539.826 374.752 544.547 373 546.547 376.053C543.722 374.829 540.974 376.362 538.446 377.561Z" fill="#407BFF"/>
<path d="M488.278 410.994C485.053 408.727 481.712 404.862 477.545 406.884C480.938 402.865 486.64 407.361 488.278 410.994Z" fill="#407BFF"/>
<path d="M488.278 416.843C484.06 418.39 475.636 418.505 475.12 412.618C477.532 417.423 483.685 416.367 488.278 416.843Z" fill="#407BFF"/>
<path d="M407.189 443.204C407.41 442.755 407.519 442.26 407.507 441.759C407.495 441.259 407.361 440.77 407.117 440.333C406.874 439.896 406.528 439.524 406.109 439.25C405.69 438.976 405.21 438.807 404.712 438.759C405.139 437.484 405.167 436.108 404.791 434.817C404.416 433.525 403.654 432.379 402.609 431.531C402.361 431.292 402.037 431.147 401.693 431.119C401.329 431.158 400.985 431.311 400.713 431.557L394.921 435.718C394.45 436 394.052 436.388 393.76 436.852C392.573 439.145 396.856 442.083 395.05 443.977C394.547 444.531 393.76 444.634 393.102 445.033C391.722 445.897 391.554 447.79 390.909 449.285C390.264 450.78 388.019 451.926 387.155 450.573C387.8 449.143 385.865 447.906 384.317 447.726C382.769 447.546 381.131 447.455 380.279 446C378.061 447.932 373.12 442.547 373.223 440.382C372.352 440.539 371.552 440.963 370.934 441.596C370.317 442.229 369.913 443.039 369.779 443.912C369.527 445.705 369.462 447.518 369.585 449.324C369.585 452.841 368.398 456.281 368.463 459.798C368.463 462.53 369.572 465.557 372.075 466.665C373.314 467.107 374.633 467.282 375.945 467.181L404.493 467C405.181 467.053 405.871 466.938 406.505 466.665C407.795 465.995 408.066 464.308 408.182 462.865C408.681 456.672 409.193 450.479 409.717 444.286L407.189 443.204Z" fill="#407BFF"/>
<path opacity="0.3" d="M407.189 443.204C407.41 442.755 407.519 442.26 407.507 441.759C407.495 441.259 407.361 440.77 407.117 440.333C406.874 439.896 406.528 439.524 406.109 439.25C405.69 438.976 405.21 438.807 404.712 438.759C405.139 437.484 405.167 436.108 404.791 434.817C404.416 433.525 403.654 432.379 402.609 431.531C402.361 431.292 402.037 431.147 401.693 431.119C401.329 431.158 400.985 431.311 400.713 431.557L394.921 435.718C394.45 436 394.052 436.388 393.76 436.852C392.573 439.145 396.856 442.083 395.05 443.977C394.547 444.531 393.76 444.634 393.102 445.033C391.722 445.897 391.554 447.79 390.909 449.285C390.264 450.78 388.019 451.926 387.155 450.573C387.8 449.143 385.865 447.906 384.317 447.726C382.769 447.546 381.131 447.455 380.279 446C378.061 447.932 373.12 442.547 373.223 440.382C372.352 440.539 371.552 440.963 370.934 441.596C370.317 442.229 369.913 443.039 369.779 443.912C369.527 445.705 369.462 447.518 369.585 449.324C369.585 452.841 368.398 456.281 368.463 459.798C368.463 462.53 369.572 465.557 372.075 466.665C373.314 467.107 374.633 467.282 375.945 467.181L404.493 467C405.181 467.053 405.871 466.938 406.505 466.665C407.795 465.995 408.066 464.308 408.182 462.865C408.681 456.672 409.193 450.479 409.717 444.286L407.189 443.204Z" fill="white"/>
<path d="M408.93 413.004H364.567L364.928 417.475L365.199 420.67L365.87 428.967L366.257 433.747L366.76 440.086L366.979 442.817L367.057 443.629L367.315 446.824L367.676 451.217L367.895 453.936L368.114 456.706L368.372 459.901L368.579 462.323L368.798 465.042L368.888 466.227H409.536L409.627 465.042L409.846 462.336L410.052 459.888L410.31 456.693L410.53 453.936L410.749 451.217L411.11 446.811L411.368 443.629L411.433 442.817L411.652 440.086L412.168 433.747L412.555 428.98L413.226 420.67L413.484 417.475L413.845 413.004H408.93ZM411.587 415.942L410.736 415.078H411.665L411.587 415.942ZM411.368 418.647L411.291 419.729L407.318 423.685L402.777 419.15L406.84 415.078H407.795L411.368 418.647ZM410.22 432.819L407.318 435.718L402.777 431.17L407.318 426.648L410.465 429.779L410.22 432.819ZM368.076 429.779L371.223 426.648L375.764 431.17L371.223 435.718L368.334 432.819L368.076 429.779ZM405.795 425.166L401.19 429.701L396.701 425.166L401.242 420.631L405.795 425.166ZM398.61 415.078H403.77L401.19 417.655L398.61 415.078ZM399.745 431.157L395.204 435.705L390.651 431.157L395.204 426.635L399.745 431.157ZM384.639 437.174L389.193 432.639L393.721 437.174L389.193 441.709L384.639 437.174ZM387.709 443.178L383.13 447.726L378.654 443.204L383.194 438.656L387.709 443.178ZM395.204 438.643L399.771 443.204L395.23 447.739L390.677 443.204L395.204 438.643ZM389.193 429.701L384.665 425.166L389.219 420.631L393.747 425.166L389.193 429.701ZM387.709 431.157L383.169 435.705L378.628 431.157L383.169 426.635L387.709 431.157ZM377.144 429.701L372.629 425.166L377.17 420.631L381.724 425.166L377.144 429.701ZM377.144 432.639L381.698 437.174L377.144 441.709L372.604 437.174L377.144 432.639ZM381.698 449.195L377.144 453.73L372.604 449.195L377.144 444.66L381.698 449.195ZM383.156 450.663L387.709 455.199L383.169 459.747L378.628 455.199L383.156 450.663ZM384.639 449.195L389.193 444.66L393.721 449.195L389.193 453.73L384.639 449.195ZM395.204 450.663L399.745 455.199L395.204 459.747L390.651 455.199L395.204 450.663ZM401.216 456.667L405.769 461.215L402.815 464.153H399.642L396.701 461.241L401.216 456.667ZM396.675 449.195L401.216 444.66L405.769 449.195L401.19 453.73L396.675 449.195ZM396.675 437.174L401.19 432.639L405.744 437.174L401.19 441.709L396.675 437.174ZM399.745 419.137L395.204 423.672L390.651 419.137L394.727 415.065H395.682L399.745 419.137ZM389.193 417.668L386.613 415.091H391.773L389.193 417.668ZM387.709 419.137L383.169 423.672L378.628 419.137L382.691 415.065H383.646L387.709 419.137ZM379.75 415.065L377.17 417.642L374.59 415.065H379.75ZM371.61 415.065L375.674 419.137L371.133 423.672L367.173 419.716L367.095 418.634L370.656 415.065H371.61ZM367.74 415.065L366.902 415.916L366.824 415.065H367.74ZM367.457 422.925L369.688 425.141L367.792 427.035L367.457 422.925ZM368.747 438.14L368.579 435.989L369.74 437.161L368.747 438.14ZM368.966 440.885L371.21 438.63L375.751 443.178L371.21 447.713L369.379 445.884L368.966 440.885ZM369.649 449.272V449.079L369.753 449.182L369.662 449.272H369.649ZM370.436 458.948L369.869 451.991L371.159 450.702L375.7 455.237L371.159 459.772L370.385 458.999L370.436 458.948ZM370.849 464.101L370.772 463.058L371.21 462.62L372.681 464.101H370.849ZM372.681 461.164L377.222 456.616L381.776 461.164L378.821 464.101H375.622L372.681 461.164ZM381.776 464.101L383.246 462.62L384.73 464.101H381.776ZM387.658 464.101L384.665 461.241L389.219 456.693L393.747 461.241L390.87 464.153L387.658 464.101ZM393.798 464.101L395.282 462.62L396.752 464.101H393.798ZM407.666 464.101H405.834L407.305 462.62L407.743 463.058L407.666 464.101ZM408.092 458.948L407.305 459.721L402.764 455.186L407.305 450.651L408.595 451.939L408.092 458.948ZM408.891 449.066V449.272L408.801 449.182L408.917 449.066H408.891ZM409.149 445.884L407.305 447.713L402.712 443.204L407.253 438.656L409.511 440.91L409.149 445.884ZM409.781 438.153L408.775 437.161L409.949 435.989L409.781 438.153ZM411.071 422.912L410.736 427.047L408.724 425.166L410.968 422.937L411.071 422.912Z" fill="#407BFF"/>
<g opacity="0.6">
<path d="M408.93 413.004H364.567L364.928 417.475L365.199 420.67L365.87 428.967L366.257 433.747L366.76 440.086L366.979 442.817L367.057 443.629L367.315 446.824L367.676 451.217L367.895 453.936L368.114 456.706L368.372 459.901L368.579 462.323L368.798 465.042L368.888 466.227H409.536L409.627 465.042L409.846 462.336L410.052 459.888L410.31 456.693L410.53 453.936L410.749 451.217L411.11 446.811L411.368 443.629L411.433 442.817L411.652 440.086L412.168 433.747L412.555 428.98L413.226 420.67L413.484 417.475L413.845 413.004H408.93ZM411.587 415.942L410.736 415.078H411.665L411.587 415.942ZM411.368 418.647L411.291 419.729L407.318 423.685L402.777 419.15L406.84 415.078H407.795L411.368 418.647ZM410.22 432.819L407.318 435.718L402.777 431.17L407.318 426.648L410.465 429.779L410.22 432.819ZM368.076 429.779L371.223 426.648L375.764 431.17L371.223 435.718L368.334 432.819L368.076 429.779ZM405.795 425.166L401.19 429.701L396.701 425.166L401.242 420.631L405.795 425.166ZM398.61 415.078H403.77L401.19 417.655L398.61 415.078ZM399.745 431.157L395.204 435.705L390.651 431.157L395.204 426.635L399.745 431.157ZM384.639 437.174L389.193 432.639L393.721 437.174L389.193 441.709L384.639 437.174ZM387.709 443.178L383.13 447.726L378.654 443.204L383.194 438.656L387.709 443.178ZM395.204 438.643L399.771 443.204L395.23 447.739L390.677 443.204L395.204 438.643ZM389.193 429.701L384.665 425.166L389.219 420.631L393.747 425.166L389.193 429.701ZM387.709 431.157L383.169 435.705L378.628 431.157L383.169 426.635L387.709 431.157ZM377.144 429.701L372.629 425.166L377.17 420.631L381.724 425.166L377.144 429.701ZM377.144 432.639L381.698 437.174L377.144 441.709L372.604 437.174L377.144 432.639ZM381.698 449.195L377.144 453.73L372.604 449.195L377.144 444.66L381.698 449.195ZM383.156 450.663L387.709 455.199L383.169 459.747L378.628 455.199L383.156 450.663ZM384.639 449.195L389.193 444.66L393.721 449.195L389.193 453.73L384.639 449.195ZM395.204 450.663L399.745 455.199L395.204 459.747L390.651 455.199L395.204 450.663ZM401.216 456.667L405.769 461.215L402.815 464.153H399.642L396.701 461.241L401.216 456.667ZM396.675 449.195L401.216 444.66L405.769 449.195L401.19 453.73L396.675 449.195ZM396.675 437.174L401.19 432.639L405.744 437.174L401.19 441.709L396.675 437.174ZM399.745 419.137L395.204 423.672L390.651 419.137L394.727 415.065H395.682L399.745 419.137ZM389.193 417.668L386.613 415.091H391.773L389.193 417.668ZM387.709 419.137L383.169 423.672L378.628 419.137L382.691 415.065H383.646L387.709 419.137ZM379.75 415.065L377.17 417.642L374.59 415.065H379.75ZM371.61 415.065L375.674 419.137L371.133 423.672L367.173 419.716L367.095 418.634L370.656 415.065H371.61ZM367.74 415.065L366.902 415.916L366.824 415.065H367.74ZM367.457 422.925L369.688 425.141L367.792 427.035L367.457 422.925ZM368.747 438.14L368.579 435.989L369.74 437.161L368.747 438.14ZM368.966 440.885L371.21 438.63L375.751 443.178L371.21 447.713L369.379 445.884L368.966 440.885ZM369.649 449.272V449.079L369.753 449.182L369.662 449.272H369.649ZM370.436 458.948L369.869 451.991L371.159 450.702L375.7 455.237L371.159 459.772L370.385 458.999L370.436 458.948ZM370.849 464.101L370.772 463.058L371.21 462.62L372.681 464.101H370.849ZM372.681 461.164L377.222 456.616L381.776 461.164L378.821 464.101H375.622L372.681 461.164ZM381.776 464.101L383.246 462.62L384.73 464.101H381.776ZM387.658 464.101L384.665 461.241L389.219 456.693L393.747 461.241L390.87 464.153L387.658 464.101ZM393.798 464.101L395.282 462.62L396.752 464.101H393.798ZM407.666 464.101H405.834L407.305 462.62L407.743 463.058L407.666 464.101ZM408.092 458.948L407.305 459.721L402.764 455.186L407.305 450.651L408.595 451.939L408.092 458.948ZM408.891 449.066V449.272L408.801 449.182L408.917 449.066H408.891ZM409.149 445.884L407.305 447.713L402.712 443.204L407.253 438.656L409.511 440.91L409.149 445.884ZM409.781 438.153L408.775 437.161L409.949 435.989L409.781 438.153ZM411.071 422.912L410.736 427.047L408.724 425.166L410.968 422.937L411.071 422.912Z" fill="white"/>
</g>
<path d="M363.845 416.947H414.568C415.736 416.947 416.683 416.001 416.683 414.834V413.275C416.683 412.108 415.736 411.162 414.568 411.162H363.845C362.676 411.162 361.729 412.108 361.729 413.275V414.834C361.729 416.001 362.676 416.947 363.845 416.947Z" fill="#407BFF"/>
<path d="M410.607 463.122H367.818C366.649 463.122 365.702 464.068 365.702 465.235V466.794C365.702 467.961 366.649 468.907 367.818 468.907H410.607C411.775 468.907 412.723 467.961 412.723 466.794V465.235C412.723 464.068 411.775 463.122 410.607 463.122Z" fill="#407BFF"/>
<path d="M559.267 120.618H301.718V295.748H559.267V120.618Z" fill="#407BFF"/>
<path opacity="0.6" d="M559.267 120.618H301.718V295.748H559.267V120.618Z" fill="white"/>
<path d="M492.058 171H368.901V192.065H492.058V171Z" fill="white"/>
<path d="M492.058 200.878H368.901V221.943H492.058V200.878Z" fill="white"/>
<path opacity="0.2" d="M493.348 232.63H370.191V253.696H493.348V232.63Z" fill="black"/>
<path d="M492.058 231.342H368.901V252.407H492.058V231.342Z" fill="#407BFF"/>
<path d="M233.851 120.155H196.79C193.762 120.155 190.858 121.356 188.717 123.494C186.576 125.633 185.373 128.533 185.373 131.557V163.766C185.373 166.79 186.576 169.691 188.717 171.829C190.858 173.967 193.762 175.169 196.79 175.169H207.6L198.57 193.064L215.34 175.169H233.903C235.401 175.169 236.885 174.874 238.27 174.3C239.654 173.727 240.912 172.887 241.971 171.828C243.03 170.769 243.87 169.512 244.442 168.129C245.014 166.746 245.308 165.263 245.306 163.766V131.557C245.308 130.056 245.013 128.569 244.437 127.182C243.862 125.796 243.017 124.536 241.953 123.477C240.888 122.417 239.624 121.578 238.234 121.008C236.844 120.438 235.354 120.148 233.851 120.155Z" fill="#407BFF"/>
<path opacity="0.7" d="M233.851 120.155H196.79C193.762 120.155 190.858 121.356 188.717 123.494C186.576 125.633 185.373 128.533 185.373 131.557V163.766C185.373 166.79 186.576 169.691 188.717 171.829C190.858 173.967 193.762 175.169 196.79 175.169H207.6L198.57 193.064L215.34 175.169H233.903C235.401 175.169 236.885 174.874 238.27 174.3C239.654 173.727 240.912 172.887 241.971 171.828C243.03 170.769 243.87 169.512 244.442 168.129C245.014 166.746 245.308 165.263 245.306 163.766V131.557C245.308 130.056 245.013 128.569 244.437 127.182C243.862 125.796 243.017 124.536 241.953 123.477C240.888 122.417 239.624 121.578 238.234 121.008C236.844 120.438 235.354 120.148 233.851 120.155Z" fill="white"/>
<path d="M213.392 155.727C213.146 155.727 212.904 155.675 212.681 155.572C212.459 155.47 212.261 155.321 212.102 155.134L204.878 146.644C204.734 146.475 204.624 146.279 204.556 146.067C204.488 145.856 204.462 145.633 204.48 145.412C204.498 145.191 204.56 144.975 204.661 144.777C204.762 144.58 204.902 144.404 205.071 144.26C205.413 143.97 205.857 143.827 206.304 143.863C206.526 143.881 206.742 143.943 206.94 144.044C207.138 144.145 207.314 144.284 207.458 144.453L213.392 151.437L223.17 139.905C223.314 139.736 223.49 139.597 223.688 139.496C223.886 139.395 224.101 139.333 224.323 139.315C224.545 139.297 224.768 139.323 224.979 139.391C225.191 139.459 225.387 139.568 225.556 139.712C225.726 139.856 225.865 140.032 225.967 140.229C226.068 140.427 226.129 140.643 226.147 140.864C226.165 141.085 226.139 141.308 226.071 141.519C226.003 141.731 225.894 141.927 225.75 142.096L214.669 155.134C214.512 155.32 214.317 155.47 214.096 155.572C213.875 155.674 213.635 155.727 213.392 155.727Z" fill="white"/>
<path d="M228.318 160.513C235.502 153.338 235.502 141.705 228.318 134.531C221.135 127.356 209.487 127.356 202.303 134.531C195.12 141.705 195.12 153.338 202.303 160.513C209.487 167.688 221.135 167.688 228.318 160.513Z" fill="#407BFF"/>
<path d="M264.45 466.549H339.528C339.922 466.549 340.299 466.393 340.577 466.115C340.855 465.838 341.012 465.461 341.012 465.068V460.288C341.008 459.897 340.85 459.523 340.573 459.248C340.295 458.973 339.919 458.819 339.528 458.819H268.32V305.733H338.315C339.028 305.733 339.712 305.451 340.217 304.949C340.723 304.447 341.008 303.765 341.012 303.054V298.003H264.45C263.424 298.003 262.439 298.41 261.714 299.135C260.988 299.86 260.58 300.843 260.58 301.868V462.684C260.58 463.709 260.988 464.692 261.714 465.417C262.439 466.142 263.424 466.549 264.45 466.549Z" fill="#263238"/>
<g opacity="0.3">
<path d="M260.58 301.868V462.671C260.58 463.696 260.988 464.68 261.714 465.404C262.439 466.129 263.424 466.536 264.45 466.536H339.528C339.918 466.536 340.292 466.382 340.568 466.106C340.844 465.831 340.999 465.457 340.999 465.068V460.288C340.999 459.897 340.844 459.522 340.569 459.245C340.293 458.967 339.919 458.81 339.528 458.806H268.32V305.733H338.315C339.028 305.73 339.711 305.445 340.214 304.94C340.716 304.436 340.999 303.753 340.999 303.041V298.003H264.45C263.424 298.003 262.439 298.41 261.714 299.135C260.988 299.86 260.58 300.843 260.58 301.868Z" fill="white"/>
</g>
<path opacity="0.2" d="M260.58 301.868V342.877C263.16 343.53 265.74 344.162 268.32 344.771V305.733H338.315C339.028 305.73 339.711 305.445 340.214 304.94C340.716 304.436 340.999 303.753 340.999 303.041V298.003H264.45C263.424 298.003 262.439 298.41 261.714 299.135C260.988 299.86 260.58 300.843 260.58 301.868Z" fill="black"/>
<path d="M124.807 444.969L155.587 442.289V401.976H166.41V442.341L197.37 444.969C198.684 445.097 199.903 445.709 200.79 446.685C201.677 447.662 202.169 448.933 202.169 450.251V454.348H119.97V450.251C119.971 448.927 120.468 447.65 121.363 446.673C122.258 445.696 123.487 445.088 124.807 444.969Z" fill="#263238"/>
<path opacity="0.1" d="M124.807 444.969L155.587 442.289V401.976H166.41V442.341L197.37 444.969C198.684 445.097 199.903 445.709 200.79 446.685C201.677 447.662 202.169 448.933 202.169 450.251V454.348H119.97V450.251C119.971 448.927 120.468 447.65 121.363 446.673C122.258 445.696 123.487 445.088 124.807 444.969Z" fill="white"/>
<path d="M192.133 459.437C192.133 460.836 192.548 462.204 193.326 463.367C194.104 464.53 195.21 465.437 196.504 465.972C197.799 466.508 199.223 466.648 200.596 466.375C201.97 466.102 203.232 465.428 204.222 464.439C205.213 463.45 205.887 462.189 206.161 460.817C206.434 459.445 206.294 458.023 205.758 456.731C205.222 455.438 204.314 454.333 203.149 453.556C201.985 452.779 200.615 452.364 199.215 452.364C198.284 452.362 197.362 452.544 196.502 452.899C195.642 453.254 194.861 453.775 194.203 454.432C193.545 455.089 193.024 455.87 192.668 456.729C192.313 457.587 192.131 458.508 192.133 459.437Z" fill="#263238"/>
<path d="M129.967 459.437C129.967 460.837 129.552 462.205 128.773 463.368C127.994 464.532 126.887 465.438 125.593 465.973C124.298 466.508 122.873 466.648 121.499 466.374C120.125 466.1 118.863 465.425 117.873 464.434C116.883 463.444 116.21 462.182 115.938 460.809C115.666 459.436 115.808 458.014 116.346 456.722C116.884 455.429 117.794 454.326 118.96 453.55C120.126 452.774 121.497 452.362 122.898 452.364C123.828 452.364 124.748 452.547 125.606 452.903C126.465 453.258 127.245 453.78 127.901 454.437C128.558 455.094 129.079 455.873 129.433 456.732C129.788 457.59 129.969 458.509 129.967 459.437Z" fill="#263238"/>
<path d="M163.482 410.157H158.515C157.246 410.157 156.029 409.653 155.131 408.757C154.234 407.86 153.729 406.645 153.729 405.377V370.591H168.268V405.377C168.268 406.645 167.763 407.86 166.866 408.757C165.968 409.653 164.751 410.157 163.482 410.157Z" fill="#263238"/>
<path opacity="0.2" d="M163.482 410.157H158.515C157.246 410.157 156.029 409.653 155.131 408.757C154.234 407.86 153.729 406.645 153.729 405.377V370.591H168.268V405.377C168.268 406.645 167.763 407.86 166.866 408.757C165.968 409.653 164.751 410.157 163.482 410.157Z" fill="white"/>
<path d="M129.077 290.737C129.077 290.737 132.406 357.513 146.802 369.006H131.399C131.399 369.006 117.674 346.253 116.655 290.737H129.077Z" fill="#263238"/>
<path opacity="0.1" d="M129.077 290.737C129.077 290.737 132.406 357.513 146.802 369.006H131.399C131.399 369.006 117.674 346.253 116.655 290.737H129.077Z" fill="white"/>
<path d="M127.826 363.466H196.08C197.616 363.466 199.089 364.075 200.176 365.16C201.262 366.245 201.872 367.716 201.872 369.251V374.533H122.021V369.251C122.021 368.49 122.171 367.737 122.463 367.034C122.755 366.331 123.183 365.693 123.722 365.155C124.261 364.618 124.901 364.192 125.606 363.902C126.31 363.612 127.064 363.464 127.826 363.466Z" fill="#407BFF"/>
<path d="M202.595 369.006H121.325C120.035 369.006 118.99 370.05 118.99 371.338V372.201C118.99 373.489 120.035 374.533 121.325 374.533H202.595C203.884 374.533 204.93 373.489 204.93 372.201V371.338C204.93 370.05 203.884 369.006 202.595 369.006Z" fill="#263238"/>
<path opacity="0.6" d="M202.595 369.006H121.325C120.035 369.006 118.99 370.05 118.99 371.338V372.201C118.99 373.489 120.035 374.533 121.325 374.533H202.595C203.884 374.533 204.93 373.489 204.93 372.201V371.338C204.93 370.05 203.884 369.006 202.595 369.006Z" fill="white"/>
<path d="M113.946 305.347H138.623C145.847 305.347 151.059 298.905 150.233 290.853L149.189 280.185C148.389 272.184 141.9 265.69 134.676 265.69H110.037C102.813 265.69 97.6015 272.132 98.4271 280.185L99.472 290.853C100.22 298.905 106.722 305.347 113.946 305.347Z" fill="#407BFF"/>
<path d="M195.383 247.743C196.919 252.6 198.724 257.664 200.711 262.302C202.388 266.167 204.775 271.089 207.497 273.678C209.973 275.881 215.869 276.719 219.7 277.221C224.86 277.878 230.355 278.123 235.709 278.342L236.663 285.557C230.988 287.078 225.168 287.998 219.3 288.301C212.747 288.533 205.11 288.301 199.434 284.282C191.191 277.84 187.605 269.259 183.954 260.202C182.922 257.329 181.993 254.7 181.206 251.686L195.396 247.743H195.383Z" fill="#B65B52"/>
<path d="M189.05 240.928C193.113 242.319 196.79 248.155 207.019 271.565C207.019 271.565 208.683 274.426 216.978 276.216L216.217 289.358C216.217 289.358 204.375 288.843 201.627 286.949C198.879 285.055 182.406 257.986 182.406 257.986L189.05 240.928Z" fill="#263238"/>
<path opacity="0.2" d="M216.978 276.242L216.217 289.384C216.217 289.384 206.722 288.971 202.762 287.516C202.363 287.382 201.982 287.2 201.627 286.974C200.04 285.866 193.887 276.345 188.92 268.512C185.321 262.817 182.47 258.012 182.47 258.012L189.049 240.928C193.113 242.319 196.789 248.155 207.032 271.552C207.032 271.578 208.683 274.426 216.978 276.242Z" fill="white"/>
<path opacity="0.2" d="M202.762 287.516C202.363 287.382 201.982 287.2 201.627 286.974C200.04 285.866 193.887 276.345 188.92 268.512C190.213 264.071 191.742 259.701 193.5 255.422C193.5 255.422 202.943 274.323 202.762 287.516Z" fill="black"/>
<path d="M232.897 278.999L242.146 275.675L241.011 288.044C241.011 288.044 232.522 289.126 231.478 284.668L232.897 278.999Z" fill="#B55B52"/>
<path d="M249.809 278.175L248.39 288.366L241.011 288.044L242.146 275.675L249.809 278.175Z" fill="#B55B52"/>
<path d="M217.043 275.675L221.764 277.093L220.035 289.873L215.314 290.685L217.043 275.675Z" fill="#263238"/>
<path d="M195.745 322.212C195.745 322.212 258.168 346.807 272.68 357.088C287.193 367.37 323.79 436.685 323.79 436.685L308.658 448.28C308.658 448.28 265.005 384.969 259.638 380.678C254.272 376.388 184.818 355.091 184.818 355.091L195.745 322.212Z" fill="#407BFF"/>
<path opacity="0.4" d="M323.79 436.685L308.658 448.28C308.658 448.28 298.467 433.502 287.335 417.745C275.428 400.88 262.438 382.959 259.677 380.679C255.807 377.535 217.559 365.295 197.293 358.956C189.836 356.612 184.818 355.091 184.818 355.091L195.732 322.173C195.732 322.173 258.142 346.768 272.667 357.05C287.193 367.331 323.79 436.685 323.79 436.685Z" fill="white"/>
<path d="M326.563 461.486L333.852 454.168L321.932 435.757L314.657 443.075L326.563 461.486Z" fill="#B55B52"/>
<path opacity="0.2" d="M314.657 443.075L321.932 435.77L328.744 446.296L321.21 453.227L314.657 443.075Z" fill="black"/>
<path d="M335.116 453.369C335.116 453.369 335.116 453.369 335.207 453.369C335.297 453.369 335.207 453.369 335.207 453.369C336.065 453.054 336.886 452.648 337.658 452.158C338.258 451.837 338.718 451.304 338.948 450.663C338.995 450.423 338.973 450.174 338.884 449.946C338.795 449.718 338.642 449.52 338.444 449.375C338.338 449.265 338.205 449.183 338.059 449.138C337.912 449.093 337.756 449.086 337.606 449.117C336.896 449.285 336.2 450.29 335.671 451.256C335.783 450.354 335.572 449.442 335.078 448.679C334.933 448.534 334.743 448.441 334.539 448.418C334.335 448.395 334.129 448.441 333.955 448.551C333.793 448.626 333.652 448.74 333.542 448.881C333.432 449.022 333.357 449.187 333.323 449.362C333.026 450.754 334.897 452.995 334.987 453.124L335.116 452.995L335 453.137C335 453.137 334.91 453.279 334.91 453.292C334.929 453.327 334.961 453.355 334.998 453.369C335.036 453.383 335.078 453.383 335.116 453.369ZM335.181 452.416C335.181 452.493 335.116 452.57 335.09 452.635C334.523 451.836 333.684 450.432 333.865 449.607C333.88 449.51 333.915 449.418 333.969 449.336C334.022 449.253 334.092 449.184 334.174 449.13H334.265C334.574 448.976 334.742 449.066 334.845 449.13C335.339 450.152 335.458 451.315 335.181 452.416ZM335.619 452.725C336.187 451.437 337.129 449.762 337.838 449.607C337.912 449.588 337.99 449.59 338.063 449.613C338.136 449.636 338.201 449.678 338.251 449.736C338.371 449.829 338.466 449.951 338.524 450.091C338.583 450.231 338.605 450.384 338.586 450.535C338.444 451.205 337.348 452.003 335.619 452.725Z" fill="#407BFF"/>
<path d="M333.71 452.712L324.087 459.154C324.004 459.203 323.931 459.268 323.874 459.346C323.816 459.423 323.775 459.511 323.752 459.605C323.729 459.698 323.725 459.796 323.741 459.891C323.756 459.986 323.79 460.077 323.842 460.159L328.486 468.082C328.751 468.483 329.165 468.763 329.637 468.859C330.108 468.956 330.599 468.862 331.001 468.598C334.316 466.292 335.787 465.029 340.031 462.156C343.895 459.782 347.589 457.143 351.086 454.258C354.26 451.308 351.254 448.254 349.655 449.221C345.785 451.501 339.231 452.48 335.542 452.21C334.891 452.159 334.243 452.336 333.71 452.712Z" fill="#263238"/>
<path d="M309.368 453.395L328.266 440.833L323.906 431.956L303.434 446.141L309.368 453.395Z" fill="#407BFF"/>
<path opacity="0.2" d="M309.368 453.395L328.266 440.833L323.906 431.956L303.434 446.141L309.368 453.395Z" fill="white"/>
<path opacity="0.2" d="M287.36 417.797C275.454 400.932 262.463 383.01 259.703 380.73C255.833 377.586 217.584 365.347 197.318 359.008L194.958 334.529L202.362 333.24L203.201 335.121C203.201 335.121 249.46 345.596 262.541 352.141C270.965 356.277 282.278 397.608 287.36 417.797Z" fill="black"/>
<path d="M284.587 455.817C284.601 455.823 284.617 455.826 284.632 455.826C284.648 455.826 284.663 455.823 284.677 455.817C285.594 455.807 286.506 455.699 287.399 455.495C288.082 455.398 288.704 455.049 289.141 454.516C289.269 454.311 289.337 454.074 289.337 453.833C289.337 453.591 289.269 453.355 289.141 453.15C289.077 453.009 288.978 452.887 288.854 452.795C288.73 452.702 288.585 452.643 288.431 452.622C287.709 452.532 286.716 453.266 285.851 454C286.246 453.201 286.342 452.287 286.122 451.424C286.036 451.239 285.89 451.088 285.707 450.997C285.524 450.906 285.316 450.879 285.116 450.921C284.939 450.948 284.77 451.011 284.619 451.106C284.468 451.202 284.339 451.327 284.239 451.475C283.503 452.699 284.523 455.431 284.574 455.585L284.729 455.495L284.574 455.598C284.574 455.598 284.432 455.701 284.445 455.714L284.587 455.817ZM284.974 454.928L284.806 455.108C284.406 454.062 284.352 452.915 284.652 451.836C284.7 451.752 284.765 451.679 284.843 451.622C284.92 451.564 285.009 451.523 285.103 451.501H285.219C285.555 451.501 285.684 451.604 285.735 451.733C285.865 452.854 285.596 453.985 284.974 454.928ZM285.271 455.366C286.238 454.335 287.683 453.073 288.405 453.163C288.481 453.171 288.554 453.199 288.615 453.244C288.676 453.29 288.724 453.35 288.754 453.421C288.826 453.553 288.864 453.701 288.864 453.852C288.864 454.003 288.826 454.151 288.754 454.284C288.444 454.864 287.154 455.263 285.271 455.366Z" fill="#407BFF"/>
<path d="M273.828 460.636L283.129 456.139L277.595 434.005L268.307 438.501L273.828 460.636Z" fill="#B55B52"/>
<path opacity="0.2" d="M268.307 438.501L277.595 434.018L280.756 446.67L271.339 450.702L268.307 438.501Z" fill="black"/>
<path d="M283.477 454.722L272.254 457.621C272.16 457.639 272.07 457.676 271.99 457.73C271.91 457.784 271.841 457.853 271.788 457.933C271.736 458.013 271.699 458.104 271.682 458.198C271.664 458.293 271.666 458.39 271.687 458.484L273.441 467.503C273.568 467.962 273.87 468.354 274.282 468.595C274.694 468.835 275.184 468.906 275.647 468.791C279.517 467.709 281.349 467 286.277 465.686C290.694 464.744 295.039 463.491 299.28 461.937C303.253 460.21 301.434 456.332 299.602 456.719C295.242 457.608 288.676 456.332 285.296 454.851C284.719 454.615 284.082 454.57 283.477 454.722Z" fill="#263238"/>
<path d="M282.123 438.205C282.123 438.205 266.385 359.343 263.16 354.653C257.923 346.923 194.945 334.464 194.945 334.464L202.337 333.176L193.797 310.5L137.72 312.703C137.72 312.703 138.894 349.706 144.596 359.626C150.298 369.547 234.651 374.108 240.134 376.375C245.616 378.643 262.347 440.498 262.347 440.498L282.123 438.205Z" fill="#407BFF"/>
<path opacity="0.4" d="M282.123 438.205C282.123 438.205 266.385 359.343 263.16 354.653C257.923 346.923 194.945 334.464 194.945 334.464L202.337 333.176L193.797 310.5L137.72 312.703C137.72 312.703 138.894 349.706 144.596 359.626C150.298 369.547 234.651 374.108 240.134 376.375C245.616 378.643 262.347 440.498 262.347 440.498L282.123 438.205Z" fill="white"/>
<path d="M262.683 447.481L284.69 441.89L283.516 432.072L259.496 438.682L262.683 447.481Z" fill="#407BFF"/>
<path opacity="0.2" d="M262.683 447.481L284.69 441.89L283.516 432.072L259.496 438.682L262.683 447.481Z" fill="white"/>
<path d="M155.471 313.567L139.217 313.296L138.869 318.205L156.168 318.617L155.471 313.567Z" fill="#263238"/>
<path d="M157.973 313.477L158.683 318.578L194.958 318.063L193.784 313.412L157.973 313.477Z" fill="#263238"/>
<path d="M175.44 314.366L175.904 317.728C175.972 318.139 176.185 318.512 176.505 318.779C176.824 319.046 177.229 319.19 177.646 319.184L183.451 319.004C183.643 319.007 183.834 318.968 184.009 318.888C184.183 318.809 184.338 318.691 184.462 318.544C184.586 318.397 184.675 318.225 184.723 318.039C184.771 317.853 184.777 317.659 184.741 317.471L184.264 314.095C184.196 313.686 183.982 313.314 183.662 313.049C183.342 312.784 182.938 312.643 182.522 312.652L176.73 312.832C176.538 312.829 176.347 312.868 176.172 312.948C175.997 313.027 175.843 313.145 175.719 313.292C175.595 313.439 175.506 313.611 175.458 313.797C175.41 313.983 175.403 314.177 175.44 314.366Z" fill="white"/>
<path d="M139.14 312.575H192.417C193.054 312.578 193.671 312.346 194.147 311.923C194.624 311.499 194.926 310.914 194.997 310.281C201.576 258.746 189.011 240.953 189.011 240.953C184.227 239.589 179.345 238.594 174.408 237.977C167.195 237.41 159.954 237.256 152.723 237.513C147.797 237.646 142.887 238.132 138.03 238.969C135.45 240.09 132.78 251.57 135.45 287.335C136.147 296.702 136.25 304.793 136.185 309.534C136.175 310.328 136.48 311.094 137.034 311.664C137.587 312.234 138.345 312.561 139.14 312.575Z" fill="#263238"/>
<path d="M181.581 259.184H191.849L192.623 271.424L187.115 274.993L181.581 272.261V259.184Z" fill="#263238"/>
<path opacity="0.2" d="M195.035 310.281C194.965 310.915 194.662 311.499 194.186 311.923C193.71 312.346 193.093 312.579 192.455 312.575H139.178C138.779 312.576 138.384 312.499 138.015 312.346C137.646 312.194 137.312 311.969 137.031 311.686C136.75 311.403 136.528 311.067 136.378 310.698C136.229 310.328 136.154 309.933 136.159 309.534C136.159 304.793 136.159 296.65 135.437 287.335C135.067 282.182 134.796 277.526 134.624 273.369C134.204 265.764 134.247 258.139 134.753 250.539C135.398 242.809 136.727 239.549 138.069 238.944C142.942 238.105 147.87 237.618 152.813 237.488C160.04 237.23 167.276 237.385 174.485 237.952C179.409 238.57 184.278 239.565 189.05 240.928C189.05 240.928 201.614 258.798 195.035 310.281Z" fill="white"/>
<path d="M153.252 236.985L170.461 242.847L171.157 237.926C169.48 234.988 169.054 233.133 170.473 229.719L158.992 216.539C159.289 223.29 158.064 232.515 153.252 236.985Z" fill="#B55B52"/>
<path d="M164.14 245.398L167.519 246.803L170.461 248.645C170.461 248.645 174.395 271.14 173.299 290.131L176.601 292.837L180.084 290.041C180.084 290.041 175.75 255.164 174.189 248.374L174.872 246.738L176.459 243.363L173.531 241.829L168.874 242.847H165.623L164.14 245.398Z" fill="white"/>
<path opacity="0.2" d="M163.662 221.911L170.461 229.719C169.95 230.915 169.54 232.152 169.235 233.416C166.359 232.553 162.785 228.727 162.953 225.609C162.962 224.343 163.203 223.09 163.662 221.911Z" fill="black"/>
<path d="M154.323 233.867C159.179 237.097 164.369 239.797 169.803 241.92C170.396 239.521 170.396 237.014 169.803 234.615L177.401 238.402C177.401 238.402 178.033 244.29 176.291 247.421L170.706 243.337L164.436 248.49C164.436 248.49 152.568 243.917 150.711 237.707L154.323 233.867Z" fill="#263238"/>
<path opacity="0.2" d="M193.036 279.579L175.44 293.751C150.182 299.369 139.075 283.638 134.611 273.331C134.191 265.725 134.234 258.101 134.74 250.5C140.803 250.217 148.35 250.217 150.388 251.789C153.936 254.507 166.294 273.562 168.139 274.98C169.983 276.397 193.036 279.579 193.036 279.579Z" fill="black"/>
<path d="M203.046 278.909L212.295 275.572L211.16 287.941C211.16 287.941 202.672 289.023 201.627 284.565L203.046 278.909Z" fill="#B55B52"/>
<path d="M219.945 278.072L218.539 288.263L211.16 287.941L212.295 275.572L219.945 278.072Z" fill="#B55B52"/>
<path d="M149.24 253.953C151.968 259.337 154.983 264.571 158.27 269.633C160.292 272.943 162.826 275.913 165.778 278.433C166.001 278.626 166.259 278.775 166.539 278.871C169.77 279.724 173.105 280.114 176.446 280.03C185.812 280.12 195.345 279.257 204.749 278.458L206.284 285.57C199.984 287.62 193.559 289.269 187.05 290.505C179.994 291.793 173.557 292.759 166.049 292.038C163.627 291.785 161.276 291.072 159.121 289.938C150.762 285.055 145.641 277.157 140.791 269.324C139.049 266.283 137.462 263.449 135.992 260.202L149.279 253.927L149.24 253.953Z" fill="#B65B52"/>
<path d="M138.03 238.969C121.389 244.96 142.971 286.369 152.052 291.007C161.134 295.645 176.459 293.751 176.459 293.751L177.543 279.36C177.543 279.36 169.596 278.394 167.223 277.827C163.443 276.925 155.806 260.253 150.659 251.196C147.818 245.913 143.406 241.641 138.03 238.969Z" fill="#263238"/>
<path opacity="0.2" d="M138.03 238.969C121.389 244.96 142.971 286.369 152.052 291.007C161.134 295.645 176.459 293.751 176.459 293.751L177.543 279.36C177.543 279.36 169.596 278.394 167.223 277.827C163.443 276.925 155.806 260.253 150.659 251.196C147.818 245.913 143.406 241.641 138.03 238.969Z" fill="white"/>
<path d="M175.401 278.278L174.06 294.988L178.833 294.099L180.084 279.167L175.401 278.278Z" fill="#263238"/>
<path d="M188.572 202.959C189.23 206.824 187.566 214.323 182.728 211.153C177.891 207.984 187.424 196.337 188.572 202.959Z" fill="#263238"/>
<path d="M161.25 204.338C159.393 213.769 157.819 219.193 161.25 225.145C166.41 234.086 179.091 232.721 183.748 224.024C187.94 216.178 190.275 202.122 182.109 196.105C180.301 194.788 178.188 193.949 175.968 193.667C173.748 193.384 171.493 193.667 169.411 194.488C167.33 195.31 165.49 196.643 164.063 198.365C162.637 200.087 161.669 202.142 161.25 204.338Z" fill="#B55B52"/>
<path d="M156.709 193.94L167.403 193.451L167.687 199.583L167.055 199.236C167.055 199.236 166.384 208.254 161.263 211.256C154.336 205.974 152.298 197.329 156.709 193.94Z" fill="#263238"/>
<path d="M155.6 211.14C155.667 212.33 155.969 213.495 156.489 214.568C157.01 215.64 157.738 216.599 158.631 217.389C161.044 219.489 163.649 217.672 164.153 214.683C164.604 211.991 163.895 207.649 160.915 206.695C160.257 206.503 159.561 206.475 158.89 206.615C158.219 206.755 157.593 207.058 157.067 207.498C156.541 207.938 156.132 208.5 155.876 209.135C155.62 209.771 155.525 210.459 155.6 211.14Z" fill="#B55B52"/>
<path d="M174.692 210.483C174.486 211.243 174.692 211.952 175.234 212.081C175.776 212.21 176.292 211.694 176.524 210.934C176.756 210.174 176.524 209.465 175.982 209.349C175.44 209.233 174.885 209.736 174.692 210.483Z" fill="#263238"/>
<path d="M183.27 212.648C183.077 213.395 183.27 214.116 183.812 214.232C184.354 214.348 184.883 213.846 185.102 213.099C185.322 212.351 185.102 211.63 184.56 211.501C184.019 211.372 183.477 211.887 183.27 212.648Z" fill="#263238"/>
<path d="M180.445 212.338C180.795 214.807 181.49 217.214 182.509 219.489C181.894 219.707 181.239 219.793 180.588 219.742C179.937 219.691 179.303 219.504 178.729 219.193L180.445 212.338Z" fill="#A02724"/>
<path d="M173.905 221.061C174.218 221.193 174.542 221.301 174.872 221.383C174.932 221.395 174.994 221.385 175.047 221.354C175.099 221.323 175.138 221.273 175.156 221.215C175.164 221.186 175.166 221.155 175.161 221.125C175.157 221.094 175.147 221.065 175.131 221.039C175.116 221.012 175.095 220.989 175.071 220.971C175.046 220.953 175.018 220.939 174.988 220.932C174.041 220.721 173.159 220.287 172.414 219.666C171.669 219.045 171.083 218.256 170.706 217.363C170.683 217.307 170.639 217.261 170.585 217.235C170.53 217.209 170.467 217.204 170.409 217.221C170.379 217.23 170.351 217.245 170.327 217.265C170.304 217.285 170.284 217.31 170.271 217.338C170.258 217.366 170.25 217.396 170.25 217.427C170.249 217.458 170.255 217.489 170.267 217.518C170.595 218.327 171.088 219.06 171.714 219.67C172.34 220.28 173.086 220.754 173.905 221.061Z" fill="#263238"/>
<path d="M172.77 207.069C172.845 207.098 172.927 207.105 173.006 207.092C173.085 207.078 173.16 207.044 173.221 206.992C173.667 206.621 174.192 206.36 174.757 206.228C175.321 206.096 175.908 206.097 176.472 206.232C176.53 206.252 176.591 206.26 176.651 206.255C176.712 206.251 176.771 206.235 176.826 206.207C176.88 206.179 176.928 206.141 176.967 206.094C177.006 206.048 177.035 205.993 177.053 205.935C177.073 205.879 177.081 205.82 177.078 205.761C177.074 205.702 177.059 205.644 177.032 205.591C177.006 205.538 176.969 205.491 176.923 205.453C176.878 205.414 176.825 205.386 176.769 205.368C176.06 205.179 175.316 205.164 174.599 205.323C173.883 205.482 173.216 205.812 172.654 206.283C172.605 206.32 172.565 206.366 172.535 206.418C172.505 206.471 172.485 206.529 172.478 206.589C172.471 206.649 172.476 206.71 172.493 206.768C172.51 206.826 172.538 206.88 172.576 206.927C172.629 206.988 172.695 207.037 172.77 207.069Z" fill="#263238"/>
<path d="M187.747 210.638C187.825 210.666 187.91 210.673 187.992 210.658C188.074 210.644 188.151 210.608 188.214 210.555C188.278 210.501 188.327 210.432 188.356 210.354C188.385 210.276 188.393 210.192 188.379 210.109C188.243 209.394 187.937 208.722 187.489 208.148C187.04 207.575 186.461 207.116 185.799 206.811C185.684 206.768 185.557 206.771 185.444 206.819C185.331 206.867 185.241 206.956 185.192 207.069C185.15 207.182 185.153 207.307 185.201 207.418C185.249 207.528 185.339 207.616 185.45 207.662C185.964 207.901 186.413 208.259 186.759 208.708C187.104 209.156 187.337 209.681 187.437 210.238C187.447 210.327 187.482 210.411 187.536 210.481C187.591 210.551 187.664 210.606 187.747 210.638Z" fill="#263238"/>
<path d="M163.753 201.529C163.958 201.702 164.178 201.858 164.41 201.993C165.03 202.363 165.732 202.572 166.453 202.601C167.174 202.63 167.891 202.479 168.538 202.16C171.196 200.872 172.034 193.296 179.594 197.148C180.424 196.948 181.295 196.993 182.101 197.276C182.906 197.56 183.613 198.07 184.135 198.746C186.082 201.129 184.741 209.826 188.895 208.628C193.048 207.43 192.326 206.141 192.326 206.141C192.326 206.141 191.165 206.876 190.481 206.296C191.097 205.779 191.536 205.082 191.737 204.304C191.939 203.526 191.892 202.704 191.604 201.954C191.604 201.954 190.597 203.152 189.927 202.92C190.619 199.402 190.219 195.756 188.779 192.472C186.366 186.468 171.609 187.808 171.609 187.808C171.609 187.808 169.751 184.703 163.082 186.867C156.412 189.032 153.368 197.058 154.426 200.55" fill="#263238"/>
<path d="M251.808 286.974L250.853 283.38H211.728L193.719 285.171L193.036 286.974H251.808Z" fill="#263238"/>
<path opacity="0.5" d="M251.808 286.974L250.853 283.38H211.728L193.719 285.171L193.036 286.974H251.808Z" fill="white"/>
<path opacity="0.2" d="M211.728 283.38V286.974H251.808L250.853 283.38H211.728Z" fill="black"/>
<path d="M224.963 266.167C224.912 266.603 224.954 267.045 225.087 267.463C225.221 267.881 225.442 268.266 225.736 268.591C226.031 268.917 226.391 269.176 226.794 269.351C227.197 269.527 227.633 269.614 228.072 269.607H288.005C288.942 269.585 289.839 269.224 290.529 268.591C291.219 267.958 291.657 267.097 291.759 266.167L295.32 227.851C295.354 227.479 295.328 227.105 295.242 226.743C295.078 226.067 294.688 225.468 294.137 225.044C293.586 224.62 292.906 224.397 292.211 224.411H232.277C231.341 224.433 230.444 224.794 229.754 225.427C229.063 226.059 228.626 226.92 228.524 227.851L224.963 266.167Z" fill="#263238"/>
<path opacity="0.5" d="M224.963 266.167C224.912 266.603 224.954 267.045 225.087 267.463C225.221 267.881 225.442 268.266 225.736 268.591C226.031 268.917 226.391 269.176 226.794 269.351C227.197 269.527 227.633 269.614 228.072 269.607H288.005C288.942 269.585 289.839 269.224 290.529 268.591C291.219 267.958 291.657 267.097 291.759 266.167L295.32 227.851C295.354 227.479 295.328 227.105 295.242 226.743C295.078 226.067 294.688 225.468 294.137 225.044C293.586 224.62 292.906 224.397 292.211 224.411H232.277C231.341 224.433 230.444 224.794 229.754 225.427C229.063 226.059 228.626 226.92 228.524 227.851L224.963 266.167Z" fill="white"/>
<path opacity="0.1" d="M228.33 269.607H288.044C288.981 269.585 289.877 269.224 290.568 268.591C291.258 267.958 291.695 267.097 291.798 266.167L295.358 227.851C295.392 227.479 295.366 227.105 295.281 226.743H235.554C234.62 226.768 233.726 227.13 233.038 227.763C232.351 228.395 231.915 229.255 231.813 230.183L228.253 268.499C228.212 268.87 228.238 269.245 228.33 269.607Z" fill="black"/>
<path d="M269.455 246.107H257.058L260.361 281.563L240.766 284.501V286.974H282.059V284.501L273.596 281.563L269.455 246.107Z" fill="#263238"/>
<path opacity="0.5" d="M269.455 246.107H257.058L260.361 281.563L240.766 284.501V286.974H282.059V284.501L273.596 281.563L269.455 246.107Z" fill="white"/>
<path opacity="0.2" d="M257.058 246.107L266.243 286.408L273.596 286.189L269.455 246.107H257.058Z" fill="white"/>
<path d="M154.723 466.549H229.801C229.995 466.549 230.187 466.511 230.366 466.436C230.546 466.362 230.708 466.252 230.845 466.115C230.982 465.977 231.09 465.813 231.163 465.634C231.236 465.454 231.273 465.262 231.271 465.068V460.288C231.271 459.898 231.116 459.525 230.84 459.249C230.565 458.974 230.191 458.819 229.801 458.819H158.593V305.733H228.588C229.3 305.733 229.982 305.451 230.485 304.948C230.988 304.446 231.271 303.764 231.271 303.054V298.003H154.723C153.696 298.003 152.712 298.41 151.986 299.135C151.26 299.86 150.853 300.843 150.853 301.868V462.684C150.853 463.709 151.26 464.692 151.986 465.417C152.712 466.142 153.696 466.549 154.723 466.549Z" fill="#263238"/>
<g opacity="0.4">
<path d="M154.723 466.549H229.801C229.995 466.549 230.187 466.511 230.366 466.436C230.546 466.362 230.708 466.252 230.845 466.115C230.982 465.977 231.09 465.813 231.163 465.634C231.236 465.454 231.273 465.262 231.271 465.068V460.288C231.271 459.898 231.116 459.525 230.84 459.249C230.565 458.974 230.191 458.819 229.801 458.819H158.593V305.733H228.588C229.3 305.733 229.982 305.451 230.485 304.948C230.988 304.446 231.271 303.764 231.271 303.054V298.003H154.723C153.696 298.003 152.712 298.41 151.986 299.135C151.26 299.86 150.853 300.843 150.853 301.868V462.684C150.853 463.709 151.26 464.692 151.986 465.417C152.712 466.142 153.696 466.549 154.723 466.549Z" fill="white"/>
</g>
<path d="M343.011 299.291L145.099 299.291C144.436 299.291 143.799 299.028 143.33 298.559C142.86 298.091 142.597 297.455 142.597 296.792V290.711H345.514V296.805C345.51 297.465 345.245 298.098 344.776 298.564C344.307 299.03 343.673 299.291 343.011 299.291Z" fill="#407BFF"/>
<path opacity="0.2" d="M142.597 294.988H345.514V290.698H142.597V294.988Z" fill="black"/>
<path d="M138.352 291.806H349.783C350.424 291.806 351.039 291.553 351.494 291.101C351.948 290.65 352.205 290.037 352.209 289.397C352.209 288.754 351.953 288.138 351.498 287.684C351.044 287.23 350.427 286.974 349.783 286.974H138.352C137.709 286.974 137.092 287.23 136.638 287.684C136.183 288.138 135.927 288.754 135.927 289.397C135.931 290.037 136.188 290.65 136.642 291.101C137.097 291.553 137.711 291.806 138.352 291.806Z" fill="#407BFF"/>
</svg>
