<svg width="482" height="359" viewBox="0 0 482 359" fill="none" xmlns="http://www.w3.org/2000/svg">
<path d="M481.802 315.484H0V315.725H481.802V315.484Z" fill="#EBEBEB"/>
<path d="M433.525 330.988H401.611V331.229H433.525V330.988Z" fill="#EBEBEB"/>
<path d="M389.479 330.988H321.246V331.229H389.479V330.988Z" fill="#EBEBEB"/>
<path d="M283.617 322.046H265.126V322.287H283.617V322.046Z" fill="#EBEBEB"/>
<path d="M83.5925 323.665H50.5505V323.906H83.5925V323.665Z" fill="#EBEBEB"/>
<path d="M152.249 323.665H92.1687V323.906H152.249V323.665Z" fill="#EBEBEB"/>
<path d="M216.946 327.731H181.475V327.972H216.946V327.731Z" fill="#EBEBEB"/>
<path d="M228.374 272.507H42.3119C40.8543 272.504 39.4573 271.924 38.4275 270.892C37.3977 269.861 36.8193 268.462 36.8193 267.005V5.45399C36.832 4.00476 37.416 2.61905 38.4444 1.59786C39.4728 0.576676 40.8626 0.00248262 42.3119 0H228.374C229.833 0 231.233 0.579692 232.265 1.61155C233.297 2.64341 233.876 4.04291 233.876 5.50217V267.005C233.876 268.464 233.297 269.864 232.265 270.895C231.233 271.927 229.833 272.507 228.374 272.507V272.507ZM42.3119 0.192721C40.9182 0.195274 39.5824 0.75071 38.5978 1.73711C37.6132 2.72352 37.0602 4.06029 37.0602 5.45399V267.005C37.0602 268.399 37.6132 269.735 38.5978 270.722C39.5824 271.708 40.9182 272.264 42.3119 272.266H228.374C229.769 272.264 231.105 271.708 232.092 270.722C233.078 269.736 233.633 268.399 233.635 267.005V5.45399C233.633 4.0594 233.078 2.72265 232.092 1.73653C231.105 0.750397 229.769 0.195269 228.374 0.192721H42.3119Z" fill="#EBEBEB"/>
<path d="M436.811 272.507H250.739C249.281 272.504 247.883 271.924 246.852 270.893C245.82 269.861 245.24 268.463 245.237 267.005V5.45399C245.253 4.00388 245.839 2.61818 246.869 1.59726C247.899 0.57634 249.289 0.00245554 250.739 0H436.811C438.259 0.00501507 439.646 0.580329 440.673 1.60125C441.699 2.62216 442.282 4.00642 442.294 5.45399V267.005C442.294 268.461 441.717 269.857 440.689 270.889C439.662 271.92 438.267 272.502 436.811 272.507V272.507ZM250.739 0.192721C249.345 0.195269 248.008 0.750397 247.022 1.73653C246.036 2.72265 245.481 4.0594 245.478 5.45399V267.005C245.481 268.399 246.036 269.736 247.022 270.722C248.008 271.708 249.345 272.264 250.739 272.266H436.811C438.206 272.264 439.543 271.708 440.529 270.722C441.515 269.736 442.07 268.399 442.073 267.005V5.45399C442.07 4.0594 441.515 2.72265 440.529 1.73653C439.543 0.750397 438.206 0.195269 436.811 0.192721H250.739Z" fill="#EBEBEB"/>
<path d="M324.725 310.068H342.561V180.396H324.725V310.068Z" fill="#F0F0F0"/>
<path d="M142.661 315.474H339.14V310.068H142.661V315.474Z" fill="#F0F0F0"/>
<path d="M324.725 180.406H139.231V310.078H324.725V180.406Z" fill="#F5F5F5"/>
<path d="M324.725 180.406H342.561V175.684H324.725V180.406Z" fill="#E6E6E6"/>
<path d="M324.725 175.684H139.231V180.406H324.725V175.684Z" fill="#F0F0F0"/>
<path d="M318.317 219.509H145.649V190.312H318.317V219.509ZM146.844 218.304H317.122V191.516H146.844V218.304Z" fill="#E0E0E0"/>
<path d="M318.317 300.162H145.649V226.668H318.317V300.162ZM146.844 298.968H317.122V227.863H146.844V298.968Z" fill="#E0E0E0"/>
<path d="M168.91 194.754L295.055 194.754V190.919L168.91 190.919V194.754Z" fill="#E0E0E0"/>
<path d="M168.91 231.101L295.055 231.101V227.266L168.91 227.266V231.101Z" fill="#E0E0E0"/>
<path d="M405.581 312.044C405.202 312.041 404.839 311.889 404.572 311.62C404.304 311.351 404.155 310.987 404.155 310.608V87.9383C404.155 87.5601 404.305 87.1974 404.572 86.9299C404.84 86.6625 405.202 86.5122 405.581 86.5122V86.5122C405.959 86.5122 406.322 86.6625 406.589 86.9299C406.857 87.1974 407.007 87.5601 407.007 87.9383V310.608C407.007 310.987 406.857 311.351 406.59 311.62C406.323 311.889 405.96 312.041 405.581 312.044V312.044Z" fill="#F5F5F5"/>
<path d="M402.709 308.594H408.491C409.528 308.594 410.523 309.006 411.257 309.74C411.991 310.474 412.403 311.469 412.403 312.506V315.474H398.797V312.506C398.797 311.469 399.209 310.474 399.943 309.74C400.676 309.006 401.672 308.594 402.709 308.594V308.594Z" fill="#F0F0F0"/>
<path d="M377.867 117.56C377.867 117.56 378.571 90.3091 405.58 90.3091C432.59 90.3091 433.303 117.56 433.303 117.56H377.867Z" fill="#E0E0E0"/>
<path d="M76.2209 312.044C75.8401 312.044 75.4749 311.892 75.2057 311.623C74.9364 311.354 74.7852 310.989 74.7852 310.608V87.9383C74.7877 87.5592 74.9401 87.1965 75.2091 86.9293C75.4781 86.6621 75.8418 86.5122 76.2209 86.5122C76.5992 86.5122 76.9619 86.6625 77.2293 86.9299C77.4968 87.1974 77.6471 87.5601 77.6471 87.9383V310.608C77.6471 310.987 77.4971 311.351 77.2299 311.62C76.9628 311.889 76.6 312.041 76.2209 312.044V312.044Z" fill="#F5F5F5"/>
<path d="M73.3492 308.594H79.1309C80.1685 308.594 81.1635 309.006 81.8972 309.74C82.6309 310.474 83.0431 311.469 83.0431 312.506V315.474H69.437V312.506C69.437 311.992 69.5382 311.484 69.7348 311.009C69.9314 310.534 70.2196 310.103 70.5829 309.74C70.9462 309.377 71.3774 309.088 71.8521 308.892C72.3268 308.695 72.8355 308.594 73.3492 308.594V308.594Z" fill="#F0F0F0"/>
<path d="M48.4983 117.56C48.4983 117.56 49.2017 90.3091 76.2212 90.3091C103.241 90.3091 103.934 117.56 103.934 117.56H48.4983Z" fill="#E0E0E0"/>
<path d="M275.639 173.641H207.088V175.684H275.639V173.641Z" fill="#E0E0E0"/>
<path d="M275.639 173.641H207.088L213.679 134.394H282.23L275.639 173.641Z" fill="#E0E0E0"/>
<path d="M274.367 173.641H205.816L212.407 134.394H280.958L274.367 173.641Z" fill="#EBEBEB"/>
<path d="M208.418 170.558L214.026 137.188C214.059 136.983 214.164 136.795 214.323 136.661C214.483 136.526 214.685 136.454 214.893 136.456H277.528C277.655 136.456 277.781 136.483 277.897 136.537C278.013 136.59 278.116 136.668 278.198 136.765C278.281 136.863 278.341 136.977 278.375 137.1C278.409 137.223 278.416 137.352 278.395 137.478L272.787 170.847C272.753 171.053 272.647 171.24 272.488 171.376C272.33 171.512 272.128 171.587 271.919 171.589H209.285C209.157 171.59 209.03 171.562 208.913 171.508C208.796 171.454 208.693 171.375 208.61 171.277C208.527 171.178 208.467 171.063 208.434 170.939C208.401 170.815 208.395 170.685 208.418 170.558V170.558Z" fill="#FAFAFA"/>
<path d="M260.125 173.641H191.574V175.684H260.125V173.641Z" fill="#F0F0F0"/>
<path d="M330.41 31.5679H148.79V90.2706H330.41V31.5679Z" fill="#EBEBEB"/>
<path d="M330.41 90.261H333.012V31.5583H330.41V90.261Z" fill="#E0E0E0"/>
<path d="M322.451 39.5171H156.74V82.3107H322.451V39.5171Z" fill="white"/>
<path d="M249.573 60.9154L239.598 50.9402L229.623 60.9154L239.598 70.8907L249.573 60.9154Z" fill="#F5F5F5"/>
<path d="M222.794 60.9147L212.819 50.9395L202.844 60.9147L212.819 70.89L222.794 60.9147Z" fill="#F5F5F5"/>
<path d="M196.015 60.9142L186.04 50.939L176.065 60.9142L186.04 70.8895L196.015 60.9142Z" fill="#F5F5F5"/>
<path d="M276.352 60.9159L266.377 50.9407L256.402 60.9159L266.377 70.8912L276.352 60.9159Z" fill="#F5F5F5"/>
<path d="M303.131 60.9164L293.156 50.9412L283.181 60.9164L293.156 70.8917L303.131 60.9164Z" fill="#F5F5F5"/>
<path d="M240.901 359C344.086 359 427.734 354.116 427.734 348.092C427.734 342.068 344.086 337.184 240.901 337.184C137.716 337.184 54.0679 342.068 54.0679 348.092C54.0679 354.116 137.716 359 240.901 359Z" fill="#F5F5F5"/>
<path d="M349.73 65.5735C349.819 64.4594 349.674 63.339 349.305 62.284C348.936 61.229 348.351 60.2626 347.588 59.4465C346.824 58.6303 345.899 57.9824 344.871 57.5441C343.842 57.1058 342.734 56.8868 341.617 56.901H208.225C205.879 56.9344 203.63 57.8417 201.917 59.4456C200.204 61.0495 199.152 63.2346 198.965 65.5735L195.901 111.778L176.696 253.823C176.509 254.904 176.564 256.014 176.857 257.071C177.151 258.129 177.676 259.108 178.394 259.938C179.113 260.768 180.006 261.427 181.011 261.87C182.015 262.312 183.105 262.526 184.202 262.495H317.604C320.002 262.432 322.302 261.529 324.103 259.944C325.904 258.36 327.092 256.193 327.461 253.823L346.666 111.778L349.73 65.5735Z" fill="#407BFF"/>
<path opacity="0.2" d="M349.73 65.5735C349.819 64.4594 349.674 63.339 349.305 62.284C348.936 61.229 348.351 60.2626 347.588 59.4465C346.824 58.6303 345.899 57.9824 344.871 57.5441C343.842 57.1058 342.734 56.8868 341.617 56.901H208.225C205.879 56.9344 203.63 57.8417 201.917 59.4456C200.204 61.0495 199.152 63.2346 198.965 65.5735L195.901 111.778L176.696 253.823C176.509 254.904 176.564 256.014 176.857 257.071C177.151 258.129 177.676 259.108 178.394 259.938C179.113 260.768 180.006 261.427 181.011 261.87C182.015 262.312 183.105 262.526 184.202 262.495H317.604C320.002 262.432 322.302 261.529 324.103 259.944C325.904 258.36 327.092 256.193 327.461 253.823L346.666 111.778L349.73 65.5735Z" fill="black"/>
<path d="M312.853 262.505H179.452C178.355 262.534 177.266 262.319 176.263 261.876C175.259 261.433 174.366 260.773 173.648 259.944C172.93 259.115 172.405 258.136 172.111 257.08C171.816 256.023 171.76 254.914 171.946 253.833L191.15 111.779H341.916L322.711 253.823C322.344 256.196 321.156 258.364 319.355 259.95C317.554 261.537 315.253 262.441 312.853 262.505V262.505Z" fill="#407BFF"/>
<path d="M228.056 53.5093H208.187V54.4729H228.056V53.5093Z" fill="#407BFF"/>
<path d="M198.792 55.5039L198.387 54.6271C199.982 53.8919 201.718 53.5106 203.475 53.5093V54.4729C201.858 54.474 200.26 54.8258 198.792 55.5039V55.5039Z" fill="#407BFF"/>
<path d="M336.876 56.8529H203.474C201.128 56.8862 198.879 57.7936 197.166 59.3974C195.454 61.0013 194.401 63.1864 194.214 65.5253L191.15 111.778H341.915L344.97 65.5735C345.067 64.4569 344.929 63.3323 344.565 62.2722C344.201 61.2121 343.619 60.24 342.856 59.4185C342.094 58.597 341.168 57.9443 340.138 57.5024C339.108 57.0605 337.996 56.8393 336.876 56.8529V56.8529Z" fill="#407BFF"/>
<path opacity="0.9" d="M198.599 100.465L200.738 68.1558C200.836 66.9242 201.39 65.7734 202.292 64.9287C203.194 64.084 204.378 63.606 205.614 63.5884H333.84C334.429 63.5796 335.013 63.6942 335.555 63.9247C336.097 64.1551 336.584 64.4964 336.986 64.9266C337.389 65.3568 337.696 65.8663 337.889 66.4225C338.083 66.9786 338.158 67.569 338.109 68.1558L335.97 100.465C335.87 101.696 335.315 102.846 334.413 103.69C333.512 104.534 332.329 105.013 331.094 105.033H202.867C202.279 105.04 201.696 104.925 201.155 104.694C200.614 104.463 200.127 104.121 199.725 103.691C199.323 103.262 199.015 102.753 198.822 102.197C198.628 101.642 198.552 101.052 198.599 100.465V100.465Z" fill="white"/>
<g opacity="0.4">
<path d="M324.599 68.8786L323.144 70.2373C323.108 70.272 323.066 70.2992 323.02 70.3174C322.974 70.3356 322.924 70.3444 322.874 70.3433H315.166C315.111 70.3446 315.057 70.3341 315.007 70.3124C314.957 70.2908 314.913 70.2586 314.876 70.218L313.624 68.869C313.571 68.8127 313.536 68.7423 313.523 68.6663C313.51 68.5904 313.519 68.5123 313.55 68.4417C313.581 68.371 313.632 68.3109 313.696 68.2686C313.76 68.2264 313.836 68.204 313.913 68.2041H324.349C324.427 68.205 324.502 68.2295 324.566 68.2743C324.63 68.3192 324.679 68.3823 324.706 68.4553C324.733 68.5284 324.737 68.6079 324.718 68.6835C324.699 68.7591 324.658 68.8271 324.599 68.8786V68.8786Z" fill="#407BFF"/>
<path d="M322.557 93.923H312.121C312.041 93.9231 311.964 93.8993 311.898 93.8547C311.832 93.8101 311.782 93.7467 311.753 93.6729C311.724 93.599 311.717 93.5181 311.735 93.4407C311.752 93.3633 311.793 93.293 311.851 93.2389L313.296 91.8898C313.371 91.8232 313.466 91.7855 313.566 91.7838H321.275C321.33 91.7823 321.385 91.7937 321.435 91.8171C321.486 91.8406 321.53 91.8753 321.564 91.9187L322.826 93.2678C322.875 93.3231 322.907 93.391 322.919 93.4637C322.932 93.5364 322.923 93.6111 322.895 93.6793C322.867 93.7474 322.82 93.8064 322.761 93.8495C322.701 93.8926 322.63 93.918 322.557 93.923V93.923Z" fill="#407BFF"/>
<path d="M323.568 81.3287L322.826 82.0321C322.752 82.0988 322.656 82.1364 322.557 82.1381H313.508C313.455 82.137 313.402 82.1249 313.353 82.1027C313.304 82.0805 313.261 82.0486 313.225 82.0089C313.188 81.9692 313.161 81.9226 313.143 81.872C313.126 81.8213 313.119 81.7676 313.123 81.7141L313.219 80.3555C313.227 80.2558 313.271 80.1626 313.345 80.0946C313.418 80.0267 313.514 79.989 313.614 79.9893H322.691C322.746 79.9886 322.8 79.9995 322.849 80.021C322.899 80.0426 322.944 80.0745 322.981 80.1146L323.597 80.7794C323.632 80.8172 323.659 80.8615 323.676 80.9096C323.693 80.9578 323.701 81.009 323.698 81.0601C323.695 81.1113 323.682 81.1614 323.66 81.2075C323.638 81.2536 323.607 81.2948 323.568 81.3287V81.3287Z" fill="#407BFF"/>
<path d="M324.802 82.0703L324.041 92.5062C324.034 92.5823 324.005 92.6548 323.957 92.7148C323.91 92.7748 323.846 92.8197 323.774 92.8442C323.701 92.8687 323.623 92.8716 323.549 92.8527C323.475 92.8337 323.408 92.7937 323.356 92.7374L322.113 91.3884C322.076 91.3486 322.047 91.3015 322.029 91.2501C322.011 91.1987 322.003 91.1441 322.007 91.0897L322.576 83.3327C322.577 83.283 322.589 83.2341 322.611 83.1893C322.633 83.1445 322.663 83.1047 322.701 83.0725L324.147 81.7234C324.207 81.6695 324.282 81.6353 324.362 81.6255C324.442 81.6157 324.524 81.6307 324.595 81.6685C324.667 81.7063 324.725 81.7651 324.762 81.8369C324.799 81.9088 324.813 81.9903 324.802 82.0703Z" fill="#407BFF"/>
<path d="M325.698 69.6883L324.937 80.153C324.932 80.2299 324.904 80.3036 324.857 80.365C324.81 80.4263 324.747 80.4727 324.674 80.4983C324.601 80.5239 324.523 80.5277 324.448 80.5091C324.373 80.4906 324.305 80.4505 324.253 80.3939L323 79.0352C322.966 78.9958 322.939 78.95 322.923 78.9004C322.906 78.8507 322.9 78.7983 322.904 78.7461L323.463 70.9891C323.472 70.8902 323.516 70.7979 323.588 70.729L325.033 69.3703C325.091 69.3156 325.164 69.2797 325.243 69.2674C325.322 69.2551 325.403 69.267 325.475 69.3014C325.547 69.3358 325.606 69.3911 325.646 69.4602C325.686 69.5293 325.704 69.6088 325.698 69.6883V69.6883Z" fill="#407BFF"/>
</g>
<path opacity="0.4" d="M307.891 98.288C307.922 97.9282 308.084 97.5924 308.347 97.3452C308.611 97.098 308.956 96.9567 309.317 96.9485H325.698C325.89 96.9468 326.079 96.9846 326.255 97.0597C326.432 97.1348 326.59 97.2455 326.721 97.3849C326.853 97.5242 326.954 97.6893 327.018 97.8696C327.082 98.0499 327.109 98.2415 327.095 98.4325C327.064 98.7939 326.9 99.131 326.635 99.3784C326.37 99.6259 326.022 99.7661 325.66 99.7719H309.317C309.122 99.7808 308.928 99.7481 308.747 99.6759C308.566 99.6037 308.403 99.4937 308.267 99.3532C308.132 99.2127 308.029 99.045 307.964 98.8613C307.899 98.6776 307.874 98.4821 307.891 98.288Z" fill="#407BFF"/>
<path opacity="0.4" d="M287.405 98.288C287.435 97.9282 287.598 97.5924 287.861 97.3452C288.124 97.098 288.47 96.9567 288.831 96.9485H305.212C305.403 96.9468 305.593 96.9846 305.769 97.0597C305.945 97.1348 306.104 97.2455 306.235 97.3849C306.366 97.5242 306.467 97.6893 306.532 97.8696C306.596 98.0499 306.622 98.2415 306.609 98.4325V98.4325C306.578 98.7939 306.414 99.131 306.149 99.3784C305.884 99.6259 305.536 99.7661 305.173 99.7719H288.792C288.601 99.7753 288.411 99.7385 288.234 99.6638C288.058 99.5891 287.899 99.4782 287.769 99.3384C287.638 99.1985 287.538 99.0327 287.475 98.8518C287.412 98.6708 287.388 98.4788 287.405 98.288V98.288Z" fill="#407BFF"/>
<path opacity="0.4" d="M266.918 98.2879C266.949 97.9281 267.112 97.5924 267.375 97.3452C267.638 97.0979 267.983 96.9567 268.344 96.9485H284.726C284.916 96.948 285.105 96.9869 285.28 97.0625C285.455 97.1382 285.612 97.2491 285.742 97.3884C285.873 97.5276 285.973 97.6922 286.037 97.8718C286.1 98.0514 286.126 98.2423 286.113 98.4324V98.4324C286.084 98.7946 285.921 99.133 285.655 99.3808C285.39 99.6287 285.041 99.7682 284.677 99.7718H268.296C268.106 99.7739 267.917 99.736 267.741 99.6607C267.566 99.5855 267.409 99.4744 267.279 99.3347C267.149 99.195 267.05 99.0297 266.988 98.8494C266.926 98.6691 266.902 98.4779 266.918 98.2879V98.2879Z" fill="#407BFF"/>
<path opacity="0.4" d="M246.432 98.2879C246.463 97.9281 246.626 97.5924 246.889 97.3452C247.152 97.0979 247.497 96.9567 247.858 96.9485H264.24C264.43 96.948 264.619 96.9869 264.794 97.0625C264.969 97.1382 265.126 97.2491 265.256 97.3884C265.387 97.5276 265.487 97.6922 265.55 97.8718C265.614 98.0514 265.64 98.2423 265.627 98.4324V98.4324C265.598 98.7946 265.435 99.133 265.169 99.3808C264.904 99.6287 264.555 99.7682 264.191 99.7718H247.81C247.619 99.7739 247.43 99.736 247.255 99.6607C247.08 99.5855 246.923 99.4744 246.793 99.3347C246.663 99.195 246.564 99.0297 246.502 98.8494C246.44 98.6691 246.416 98.4779 246.432 98.2879V98.2879Z" fill="#407BFF"/>
<path opacity="0.1" d="M201.191 177.66L207.223 133.074C207.448 131.613 208.179 130.277 209.289 129.299C210.398 128.322 211.816 127.765 213.294 127.726H257.88C258.556 127.708 259.228 127.839 259.847 128.112C260.466 128.385 261.017 128.792 261.46 129.304C261.902 129.816 262.226 130.419 262.406 131.071C262.587 131.723 262.621 132.407 262.505 133.074L256.473 177.66C256.25 179.121 255.52 180.456 254.413 181.434C253.305 182.411 251.889 182.968 250.412 183.008H205.816C205.14 183.027 204.468 182.895 203.849 182.622C203.229 182.349 202.679 181.942 202.236 181.43C201.794 180.918 201.47 180.315 201.289 179.663C201.109 179.011 201.075 178.327 201.191 177.66V177.66Z" fill="#263238"/>
<path opacity="0.1" d="M264.712 177.66L270.773 133.074C270.998 131.612 271.729 130.276 272.839 129.299C273.948 128.322 275.365 127.765 276.843 127.726H321.429C322.106 127.705 322.779 127.836 323.399 128.108C324.019 128.381 324.571 128.788 325.014 129.3C325.457 129.812 325.78 130.417 325.96 131.069C326.14 131.722 326.172 132.407 326.055 133.074L320.032 177.66C319.805 179.12 319.074 180.455 317.964 181.432C316.855 182.409 315.439 182.967 313.961 183.008H269.327C268.651 183.026 267.979 182.895 267.361 182.622C266.742 182.349 266.192 181.942 265.75 181.43C265.308 180.918 264.985 180.314 264.806 179.662C264.626 179.009 264.594 178.326 264.712 177.66V177.66Z" fill="#263238"/>
<path opacity="0.1" d="M192.605 241.181L198.637 196.576C198.864 195.115 199.596 193.78 200.705 192.803C201.814 191.826 203.231 191.269 204.708 191.228H249.294C249.97 191.209 250.642 191.341 251.261 191.614C251.881 191.887 252.431 192.294 252.874 192.805C253.317 193.317 253.64 193.921 253.821 194.573C254.001 195.225 254.035 195.909 253.919 196.576L247.887 241.171C247.662 242.63 246.932 243.963 245.824 244.939C244.717 245.914 243.302 246.47 241.826 246.509H197.23C196.556 246.527 195.886 246.396 195.269 246.124C194.651 245.852 194.101 245.447 193.659 244.938C193.217 244.428 192.893 243.827 192.711 243.177C192.529 242.528 192.492 241.846 192.605 241.181V241.181Z" fill="#263238"/>
<path opacity="0.1" d="M256.126 241.181L262.149 196.576C262.376 195.115 263.107 193.78 264.216 192.803C265.325 191.826 266.742 191.269 268.219 191.228H312.805C313.482 191.209 314.154 191.341 314.773 191.614C315.392 191.887 315.943 192.294 316.385 192.805C316.828 193.317 317.151 193.921 317.332 194.573C317.513 195.225 317.546 195.909 317.43 196.576L311.408 241.171C311.179 242.63 310.446 243.962 309.338 244.938C308.229 245.913 306.813 246.469 305.337 246.509H260.742C260.068 246.528 259.398 246.396 258.781 246.124C258.163 245.853 257.614 245.447 257.173 244.937C256.731 244.428 256.408 243.826 256.227 243.177C256.046 242.527 256.012 241.845 256.126 241.181V241.181Z" fill="#263238"/>
<path d="M198.223 177.66L204.284 133.074C204.509 131.613 205.24 130.277 206.35 129.299C207.459 128.322 208.877 127.765 210.355 127.726H254.941C255.617 127.708 256.289 127.839 256.908 128.112C257.527 128.385 258.078 128.792 258.521 129.304C258.963 129.816 259.287 130.419 259.467 131.071C259.648 131.723 259.682 132.407 259.566 133.074L253.534 177.66C253.311 179.121 252.582 180.456 251.474 181.434C250.366 182.411 248.95 182.968 247.473 183.008H202.848C202.172 183.027 201.5 182.895 200.881 182.622C200.262 182.349 199.711 181.942 199.268 181.43C198.826 180.918 198.502 180.315 198.322 179.663C198.141 179.011 198.107 178.327 198.223 177.66V177.66Z" fill="#407BFF"/>
<path opacity="0.2" d="M198.223 177.66L204.284 133.074C204.509 131.613 205.24 130.277 206.35 129.299C207.459 128.322 208.877 127.765 210.355 127.726H254.941C255.617 127.708 256.289 127.839 256.908 128.112C257.527 128.385 258.078 128.792 258.521 129.304C258.963 129.816 259.287 130.419 259.467 131.071C259.648 131.723 259.682 132.407 259.566 133.074L253.534 177.66C253.311 179.121 252.582 180.456 251.474 181.434C250.366 182.411 248.95 182.968 247.473 183.008H202.848C202.172 183.027 201.5 182.895 200.881 182.622C200.262 182.349 199.711 181.942 199.268 181.43C198.826 180.918 198.502 180.315 198.322 179.663C198.141 179.011 198.107 178.327 198.223 177.66V177.66Z" fill="white"/>
<path d="M261.744 177.66L267.766 133.074C267.992 131.612 268.723 130.276 269.832 129.299C270.942 128.322 272.359 127.765 273.837 127.726H318.423C319.1 127.705 319.773 127.836 320.393 128.108C321.013 128.381 321.564 128.788 322.007 129.3C322.45 129.812 322.773 130.417 322.954 131.069C323.134 131.722 323.166 132.407 323.048 133.074L317.026 177.66C316.799 179.12 316.067 180.455 314.958 181.432C313.849 182.409 312.433 182.967 310.955 183.008H266.36C265.683 183.026 265.012 182.895 264.393 182.622C263.774 182.349 263.224 181.942 262.782 181.43C262.34 180.918 262.018 180.314 261.838 179.662C261.659 179.009 261.626 178.326 261.744 177.66Z" fill="#407BFF"/>
<path opacity="0.2" d="M261.744 177.66L267.766 133.074C267.992 131.612 268.723 130.276 269.832 129.299C270.942 128.322 272.359 127.765 273.837 127.726H318.423C319.1 127.705 319.773 127.836 320.393 128.108C321.013 128.381 321.564 128.788 322.007 129.3C322.45 129.812 322.773 130.417 322.954 131.069C323.134 131.722 323.166 132.407 323.048 133.074L317.026 177.66C316.799 179.12 316.067 180.455 314.958 181.432C313.849 182.409 312.433 182.967 310.955 183.008H266.36C265.683 183.026 265.012 182.895 264.393 182.622C263.774 182.349 263.224 181.942 262.782 181.43C262.34 180.918 262.018 180.314 261.838 179.662C261.659 179.009 261.626 178.326 261.744 177.66Z" fill="white"/>
<path d="M189.637 241.181L195.669 196.576C195.896 195.115 196.628 193.78 197.737 192.803C198.846 191.826 200.263 191.269 201.74 191.228H246.326C247.002 191.209 247.674 191.341 248.293 191.614C248.913 191.887 249.463 192.294 249.906 192.805C250.349 193.317 250.672 193.921 250.853 194.573C251.033 195.225 251.067 195.909 250.951 196.576L244.919 241.171C244.694 242.63 243.964 243.963 242.856 244.939C241.748 245.914 240.334 246.47 238.858 246.509H194.262C193.588 246.527 192.918 246.396 192.301 246.124C191.683 245.852 191.133 245.447 190.691 244.938C190.249 244.428 189.925 243.827 189.743 243.177C189.561 242.528 189.524 241.846 189.637 241.181V241.181Z" fill="#407BFF"/>
<path opacity="0.2" d="M189.637 241.181L195.669 196.576C195.896 195.115 196.628 193.78 197.737 192.803C198.846 191.826 200.263 191.269 201.74 191.228H246.326C247.002 191.209 247.674 191.341 248.293 191.614C248.913 191.887 249.463 192.294 249.906 192.805C250.349 193.317 250.672 193.921 250.853 194.573C251.033 195.225 251.067 195.909 250.951 196.576L244.919 241.171C244.694 242.63 243.964 243.963 242.856 244.939C241.748 245.914 240.334 246.47 238.858 246.509H194.262C193.588 246.527 192.918 246.396 192.301 246.124C191.683 245.852 191.133 245.447 190.691 244.938C190.249 244.428 189.925 243.827 189.743 243.177C189.561 242.528 189.524 241.846 189.637 241.181V241.181Z" fill="white"/>
<path d="M253.158 241.181L259.209 196.576C259.436 195.115 260.168 193.78 261.277 192.803C262.386 191.826 263.802 191.269 265.28 191.228H309.866C310.542 191.209 311.214 191.341 311.833 191.614C312.452 191.887 313.003 192.294 313.446 192.805C313.888 193.317 314.212 193.921 314.393 194.573C314.573 195.225 314.607 195.909 314.491 196.576L308.469 241.171C308.24 242.63 307.507 243.962 306.398 244.938C305.289 245.913 303.874 246.469 302.398 246.509H257.773C257.099 246.528 256.429 246.396 255.812 246.124C255.195 245.853 254.646 245.447 254.205 244.937C253.763 244.428 253.44 243.826 253.259 243.177C253.078 242.527 253.043 241.845 253.158 241.181Z" fill="#407BFF"/>
<path opacity="0.2" d="M253.158 241.181L259.209 196.576C259.436 195.115 260.168 193.78 261.277 192.803C262.386 191.826 263.802 191.269 265.28 191.228H309.866C310.542 191.209 311.214 191.341 311.833 191.614C312.452 191.887 313.003 192.294 313.446 192.805C313.888 193.317 314.212 193.921 314.393 194.573C314.573 195.225 314.607 195.909 314.491 196.576L308.469 241.171C308.24 242.63 307.507 243.962 306.398 244.938C305.289 245.913 303.874 246.469 302.398 246.509H257.773C257.099 246.528 256.429 246.396 255.812 246.124C255.195 245.853 254.646 245.447 254.205 244.937C253.763 244.428 253.44 243.826 253.259 243.177C253.078 242.527 253.043 241.845 253.158 241.181Z" fill="white"/>
<path d="M226.37 173.921C225.694 173.936 225.024 173.802 224.407 173.528C223.789 173.254 223.24 172.847 222.798 172.336C222.356 171.825 222.033 171.223 221.851 170.572C221.668 169.922 221.632 169.239 221.744 168.573L225.319 142.17C225.548 140.71 226.28 139.375 227.388 138.396C228.497 137.418 229.912 136.858 231.39 136.813V136.813C232.067 136.796 232.739 136.929 233.358 137.203C233.977 137.477 234.528 137.885 234.97 138.397C235.413 138.91 235.736 139.514 235.917 140.166C236.097 140.819 236.131 141.503 236.015 142.17L232.45 168.573C232.219 170.034 231.485 171.368 230.375 172.344C229.265 173.321 227.848 173.879 226.37 173.921V173.921Z" fill="white"/>
<path d="M210.326 155.372C210.556 153.91 211.29 152.575 212.4 151.597C213.51 150.619 214.927 150.059 216.406 150.014H242.828C243.505 149.999 244.176 150.133 244.794 150.408C245.412 150.682 245.962 151.09 246.404 151.602C246.846 152.114 247.17 152.718 247.351 153.37C247.532 154.021 247.567 154.705 247.454 155.372V155.372C247.223 156.831 246.49 158.163 245.382 159.14C244.274 160.116 242.859 160.675 241.383 160.72H214.98C214.302 160.739 213.629 160.608 213.008 160.336C212.387 160.064 211.834 159.657 211.389 159.146C210.944 158.635 210.617 158.031 210.434 157.378C210.25 156.726 210.213 156.04 210.326 155.372V155.372Z" fill="white"/>
<path d="M205.402 231.997C203.6 229.916 204.063 226.515 206.423 224.433L227.623 205.759C229.983 203.677 233.404 203.677 235.187 205.759C236.989 207.84 236.526 211.251 234.165 213.332L212.966 231.997C210.605 234.079 207.175 234.079 205.402 231.997Z" fill="white"/>
<path d="M208.948 205.759C211.309 203.677 214.729 203.677 216.522 205.759L232.662 224.433C234.464 226.515 234.001 229.916 231.641 231.997C229.28 234.079 225.859 234.079 224.076 231.997L207.926 213.332C206.124 211.251 206.587 207.84 208.948 205.759Z" fill="white"/>
<path d="M273.837 155.372C274.067 153.91 274.801 152.575 275.911 151.597C277.021 150.619 278.438 150.059 279.917 150.014H306.32C306.997 149.997 307.669 150.13 308.288 150.404C308.907 150.678 309.458 151.086 309.9 151.599C310.342 152.111 310.666 152.715 310.846 153.368C311.027 154.02 311.061 154.705 310.945 155.372V155.372C310.715 156.831 309.982 158.163 308.874 159.14C307.765 160.116 306.351 160.675 304.875 160.72H278.481C277.804 160.738 277.132 160.606 276.512 160.333C275.892 160.06 275.341 159.653 274.897 159.142C274.453 158.631 274.127 158.028 273.944 157.376C273.761 156.724 273.724 156.04 273.837 155.372V155.372Z" fill="white"/>
<path d="M266.379 210.557C266.61 209.097 267.344 207.763 268.454 206.786C269.564 205.81 270.981 205.252 272.459 205.209H298.862C299.537 205.194 300.207 205.329 300.825 205.603C301.442 205.877 301.991 206.284 302.433 206.795C302.875 207.305 303.199 207.908 303.381 208.558C303.563 209.209 303.599 209.891 303.487 210.557V210.557C303.259 212.018 302.527 213.353 301.418 214.331C300.31 215.31 298.894 215.87 297.416 215.915H271.004C270.328 215.93 269.656 215.796 269.038 215.521C268.42 215.247 267.87 214.839 267.428 214.327C266.986 213.815 266.663 213.211 266.481 212.56C266.3 211.908 266.265 211.224 266.379 210.557Z" fill="white"/>
<path d="M264.133 227.199C264.364 225.74 265.097 224.407 266.205 223.431C267.313 222.454 268.728 221.895 270.204 221.851H296.607C297.283 221.834 297.954 221.967 298.573 222.241C299.192 222.514 299.742 222.921 300.185 223.432C300.628 223.943 300.952 224.546 301.135 225.197C301.318 225.848 301.354 226.532 301.242 227.199V227.199C301.011 228.66 300.278 229.995 299.167 230.974C298.057 231.952 296.64 232.512 295.161 232.556H268.759C268.082 232.573 267.41 232.44 266.791 232.166C266.172 231.892 265.621 231.484 265.179 230.972C264.736 230.459 264.413 229.855 264.232 229.203C264.052 228.55 264.018 227.866 264.133 227.199V227.199Z" fill="white"/>
<path d="M128.506 120.162C126.772 123.38 124.989 126.849 123.361 130.241C121.732 133.633 120.161 137.092 118.812 140.552C118.456 141.419 118.167 142.286 117.849 143.153C117.68 143.598 117.582 144.066 117.56 144.541C117.521 145.908 117.774 147.268 118.302 148.53C119.681 151.773 121.514 154.803 123.746 157.53L120.46 161.385C119.544 160.793 118.662 160.15 117.82 159.458C116.974 158.795 116.166 158.084 115.401 157.328C113.778 155.771 112.357 154.016 111.171 152.105C109.791 149.913 108.927 147.435 108.646 144.859C108.508 143.375 108.629 141.879 109.003 140.436C109.273 139.472 109.523 138.412 109.832 137.42C111.012 133.48 112.438 129.618 114.1 125.857C114.929 123.997 115.777 122.156 116.712 120.345C117.646 118.533 118.543 116.78 119.66 114.929L128.506 120.162Z" fill="#FF8B7B"/>
<path d="M122.377 156.422L127.195 157.694L123.611 164.661C123.611 164.661 120.026 163.292 119.14 160.141L122.377 156.422Z" fill="#FF8B7B"/>
<path d="M133.844 159.891L129.527 165.355L123.62 164.661L127.205 157.694L133.844 159.891Z" fill="#FF8B7B"/>
<path d="M151.228 83.4098C151.334 83.9494 151.71 84.3252 152.056 84.2578C152.403 84.1903 152.606 83.6893 152.49 83.1593C152.374 82.6293 152.008 82.1957 151.661 82.3113C151.314 82.4269 151.112 82.8702 151.228 83.4098Z" fill="#263238"/>
<path d="M151.661 84.3345C152.632 85.8438 153.806 87.2122 155.15 88.4009C154.832 88.7298 154.447 88.9863 154.022 89.1526C153.596 89.3189 153.139 89.3912 152.683 89.3645L151.661 84.3345Z" fill="#FF5652"/>
<path d="M152.384 87.9775C150.814 87.9775 149.253 86.2623 148.78 83.9111C148.523 82.7637 148.6 81.5664 149.002 80.4614C149.114 80.0063 149.353 79.5924 149.691 79.2676C150.029 78.9429 150.452 78.7207 150.911 78.6268C151.37 78.533 151.846 78.5713 152.285 78.7375C152.723 78.9036 153.105 79.1906 153.386 79.5653C154.169 80.4397 154.704 81.5066 154.938 82.6565C155.172 83.8063 155.095 84.9976 154.716 86.1081C154.578 86.5524 154.328 86.9538 153.991 87.2743C153.653 87.5947 153.24 87.8235 152.789 87.939C152.656 87.9649 152.52 87.9778 152.384 87.9775ZM151.344 78.8329C151.215 78.8187 151.086 78.8187 150.958 78.8329C150.551 78.943 150.178 79.1545 149.875 79.4478C149.572 79.741 149.347 80.1063 149.224 80.5096C148.84 81.5719 148.766 82.7217 149.012 83.8244C149.503 86.2623 151.18 87.9871 152.76 87.6788C153.169 87.5712 153.543 87.3605 153.846 87.0669C154.15 86.7734 154.373 86.4067 154.495 86.0021C154.857 84.9359 154.93 83.7928 154.707 82.6891C154.483 81.5854 153.971 80.5607 153.223 79.7194C152.984 79.4544 152.695 79.2395 152.372 79.0873C152.05 78.9351 151.7 78.8486 151.344 78.8329V78.8329Z" fill="#263238"/>
<path d="M202.01 138.952L208.186 137.641L208.986 146.025C208.986 146.025 203.648 147.046 201.094 142.826L202.01 138.952Z" fill="#FF8B7B"/>
<path d="M214.026 139.52L213.631 145.639L208.986 146.025L208.187 137.641L214.026 139.52Z" fill="#FF8B7B"/>
<path d="M148.655 80.8371C148.616 80.8373 148.577 80.8298 148.54 80.8149C148.504 80.8 148.471 80.7781 148.443 80.7504C148.412 80.7215 148.387 80.6865 148.37 80.6475C148.353 80.6086 148.344 80.5665 148.344 80.524C148.344 80.4814 148.353 80.4394 148.37 80.4004C148.387 80.3614 148.412 80.3264 148.443 80.2975C148.78 79.9161 149.203 79.6208 149.678 79.4364C150.152 79.252 150.664 79.1838 151.17 79.2375C151.212 79.2434 151.252 79.2576 151.289 79.2793C151.325 79.301 151.357 79.3297 151.382 79.3638C151.407 79.398 151.425 79.4368 151.435 79.4779C151.445 79.5191 151.447 79.5619 151.44 79.6037C151.423 79.6881 151.375 79.7631 151.305 79.8132C151.236 79.8634 151.149 79.8849 151.064 79.8735V79.8735C150.663 79.834 150.259 79.8913 149.885 80.0406C149.511 80.1898 149.179 80.4266 148.915 80.7311C148.882 80.766 148.841 80.7934 148.796 80.8116C148.752 80.8299 148.703 80.8386 148.655 80.8371V80.8371Z" fill="#263238"/>
<path d="M136.35 93.1616C137.313 98.1242 137.911 104.995 134.423 108.3C134.423 108.3 135.772 113.33 145.022 113.33C155.159 113.33 149.898 108.917 149.898 108.917C145.687 107.606 145.726 102.817 146.689 98.9625L136.35 93.1616Z" fill="#FF8B7B"/>
<path d="M146.757 107.095C149.031 105.457 152.394 103.539 153.097 105.544C153.521 106.748 153.695 112.636 151.353 112.193C147.894 111.547 146.757 107.095 146.757 107.095Z" fill="#263238"/>
<path d="M132.543 111.615C131.638 110.343 131.676 106.305 132.64 105.592C134.191 104.445 140.84 104.176 149.802 106.238C148.838 110.15 150.91 112.202 150.91 112.202L132.543 111.615Z" fill="#407BFF"/>
<path d="M102.421 340.384C102.695 340.48 102.985 340.521 103.274 340.505C103.564 340.488 103.847 340.414 104.108 340.287C104.211 340.197 104.282 340.076 104.31 339.942C104.337 339.808 104.321 339.669 104.262 339.545C104.235 339.441 104.185 339.344 104.114 339.262C104.044 339.18 103.956 339.116 103.857 339.073C102.893 338.63 100.831 339.488 100.745 339.526C100.716 339.538 100.691 339.558 100.674 339.583C100.657 339.609 100.648 339.64 100.648 339.671C100.646 339.702 100.654 339.733 100.669 339.76C100.684 339.788 100.707 339.81 100.735 339.825C101.278 340.065 101.842 340.252 102.421 340.384V340.384ZM103.529 339.295L103.712 339.362C103.771 339.386 103.825 339.423 103.868 339.469C103.911 339.516 103.944 339.571 103.963 339.632C104.05 339.921 103.963 340.017 103.905 340.046C103.539 340.355 102.18 340.046 101.236 339.69C101.962 339.39 102.745 339.255 103.529 339.295V339.295Z" fill="#407BFF"/>
<path d="M100.774 339.834H100.851C101.621 339.603 103.26 338.437 103.279 337.676C103.28 337.555 103.239 337.437 103.164 337.342C103.088 337.248 102.983 337.182 102.865 337.155C102.749 337.112 102.625 337.095 102.502 337.105C102.378 337.115 102.259 337.152 102.151 337.213C101.246 337.676 100.677 339.545 100.658 339.632C100.652 339.653 100.65 339.674 100.653 339.696C100.656 339.717 100.663 339.738 100.673 339.757C100.684 339.776 100.699 339.792 100.716 339.806C100.733 339.819 100.753 339.829 100.774 339.834V339.834ZM102.701 337.435H102.768C102.971 337.502 102.971 337.599 102.971 337.647C102.971 338.1 101.872 339.015 101.043 339.381C101.25 338.629 101.68 337.957 102.277 337.454C102.407 337.394 102.556 337.387 102.691 337.435H102.701Z" fill="#407BFF"/>
<path d="M152.461 341.52C153.338 341.52 154.176 341.395 154.456 341.01C154.526 340.906 154.564 340.783 154.564 340.658C154.564 340.533 154.526 340.41 154.456 340.306C154.401 340.212 154.327 340.13 154.239 340.066C154.152 340.001 154.051 339.955 153.945 339.931C152.818 339.622 150.447 340.971 150.351 341.029C150.322 341.045 150.299 341.069 150.284 341.098C150.268 341.127 150.262 341.16 150.264 341.193C150.271 341.226 150.287 341.257 150.311 341.281C150.335 341.305 150.366 341.321 150.399 341.328C151.079 341.453 151.769 341.518 152.461 341.52V341.52ZM153.54 340.2C153.643 340.19 153.746 340.19 153.849 340.2C153.979 340.23 154.093 340.31 154.167 340.422C154.282 340.624 154.234 340.721 154.167 340.778C153.849 341.222 152.134 341.231 150.881 341.048C151.705 340.598 152.608 340.31 153.54 340.2V340.2Z" fill="#407BFF"/>
<path d="M150.419 341.328H150.486C151.305 340.962 152.924 339.497 152.799 338.726C152.799 338.543 152.644 338.321 152.201 338.283C152.041 338.265 151.879 338.279 151.725 338.325C151.571 338.372 151.428 338.449 151.305 338.553C150.693 339.293 150.326 340.206 150.255 341.164C150.253 341.186 150.257 341.209 150.264 341.23C150.272 341.251 150.284 341.27 150.299 341.286C150.314 341.302 150.333 341.315 150.353 341.324C150.374 341.333 150.396 341.337 150.419 341.337V341.328ZM152.066 338.581H152.163C152.452 338.581 152.471 338.716 152.481 338.755C152.558 339.217 151.45 340.374 150.621 340.875C150.694 340.102 151.008 339.37 151.517 338.784C151.668 338.649 151.864 338.577 152.066 338.581V338.581Z" fill="#407BFF"/>
<path d="M142.96 341.174H149.744L150.418 325.477H143.634L142.96 341.174Z" fill="#FF8B7B"/>
<path d="M93.2188 338.032L99.8387 339.468L106.497 324.85L99.8676 323.415L93.2188 338.032Z" fill="#FF8B7B"/>
<path d="M100.475 338.803L93.0358 337.194C92.9043 337.166 92.7671 337.183 92.6464 337.242C92.5257 337.302 92.4287 337.4 92.3709 337.522L89.7885 343.13C89.7197 343.266 89.6841 343.416 89.6846 343.568C89.685 343.72 89.7215 343.87 89.7911 344.005C89.8607 344.141 89.9613 344.258 90.0848 344.347C90.2083 344.436 90.3511 344.494 90.5015 344.517C93.1129 345.028 94.4138 345.153 97.6804 345.857C99.6943 346.3 104.243 347.408 107.018 348.006C109.793 348.603 110.756 345.934 109.677 345.442C104.859 343.216 102.778 341.26 101.467 339.439C101.226 339.112 100.873 338.886 100.475 338.803V338.803Z" fill="#263238"/>
<path d="M149.696 340.384H142.295C142.16 340.383 142.029 340.428 141.924 340.512C141.819 340.597 141.746 340.714 141.717 340.846L140.378 346.898C140.338 347.043 140.334 347.196 140.364 347.343C140.395 347.491 140.459 347.63 140.553 347.748C140.647 347.866 140.767 347.96 140.904 348.023C141.041 348.087 141.19 348.117 141.341 348.112C144.01 348.063 147.874 347.909 151.228 347.909C155.15 347.909 158.541 348.121 163.147 348.121C165.923 348.121 166.703 345.308 165.537 345.047C160.228 343.891 155.901 343.766 151.324 340.942C150.844 340.609 150.28 340.415 149.696 340.384V340.384Z" fill="#263238"/>
<path d="M122.3 109.851C115.95 111.306 110.737 127.523 110.737 127.523L123.495 137.246C126.792 133.726 129.116 129.409 130.24 124.719C132.418 116.201 128.795 108.348 122.3 109.851Z" fill="#407BFF"/>
<path opacity="0.4" d="M122.3 109.851C115.95 111.306 110.737 127.523 110.737 127.523L123.495 137.246C126.792 133.726 129.116 129.409 130.24 124.719C132.418 116.201 128.795 108.348 122.3 109.851Z" fill="white"/>
<path d="M160.392 117.56L171.097 127.408C172.88 129.046 174.663 130.674 176.455 132.274C178.247 133.874 180.04 135.473 181.764 136.861L180.271 136.061C181.1 136.369 181.967 136.668 182.882 136.909C183.798 137.15 184.742 137.352 185.715 137.545C187.718 137.908 189.738 138.168 191.767 138.325C193.838 138.499 195.958 138.615 198.088 138.672C200.217 138.73 202.424 138.778 204.515 138.788L205.479 143.779C203.278 144.578 201.024 145.222 198.733 145.707C196.438 146.203 194.115 146.557 191.776 146.767C189.377 146.986 186.964 147.021 184.559 146.873C182.003 146.726 179.472 146.289 177.014 145.572L176.291 145.36L175.53 144.772C173.41 143.143 171.531 141.554 169.642 139.954C167.754 138.354 165.923 136.697 164.092 135.049C160.449 131.734 156.836 128.439 153.3 125.018L160.392 117.56Z" fill="#FF8B7B"/>
<path opacity="0.2" d="M127.745 121.761C124.295 125.172 123.168 131.397 122.927 136.793L123.495 137.227C126.789 133.705 129.113 129.389 130.241 124.7C130.366 124.199 130.481 123.736 130.568 123.187L127.745 121.761Z" fill="black"/>
<path d="M162.444 116.596C163.832 123.92 164.699 138.962 160.671 168.737H124.42C124.17 163.177 127.668 136.023 122.301 109.803C126.311 109.033 130.366 108.521 134.442 108.271C139.577 107.976 144.725 107.976 149.86 108.271C151.556 108.425 153.223 108.676 154.678 108.936C156.595 109.278 158.363 110.194 159.749 111.561C161.136 112.929 162.075 114.684 162.444 116.596Z" fill="#407BFF"/>
<path opacity="0.4" d="M162.444 116.596C163.832 123.92 164.699 138.962 160.671 168.737H124.42C124.17 163.177 127.668 136.023 122.301 109.803C126.311 109.033 130.366 108.521 134.442 108.271C139.577 107.976 144.725 107.976 149.86 108.271C151.556 108.425 153.223 108.676 154.678 108.936C156.595 109.278 158.363 110.194 159.749 111.561C161.136 112.929 162.075 114.684 162.444 116.596Z" fill="white"/>
<path opacity="0.2" d="M156.894 127.456L163.446 125.885C163.649 129.855 163.668 134.77 163.369 140.85C160.353 137.42 156.508 132.062 156.894 127.456Z" fill="black"/>
<path opacity="0.2" d="M150.419 325.477L150.072 333.571H143.288L143.635 325.477H150.419Z" fill="black"/>
<path opacity="0.2" d="M99.8677 323.415L106.497 324.85L103.057 332.386L96.4373 330.95L99.8677 323.415Z" fill="black"/>
<path d="M133.122 85.9149C134.866 92.4096 135.56 96.3026 139.568 99.0007C145.6 103.067 153.059 98.4032 153.338 91.5135C153.55 85.3175 150.669 75.7297 143.702 74.4192C142.165 74.1229 140.578 74.2244 139.091 74.7142C137.604 75.204 136.267 76.0657 135.207 77.2175C134.147 78.3693 133.399 79.7729 133.034 81.2952C132.669 82.8174 132.699 84.4077 133.122 85.9149Z" fill="#FF8B7B"/>
<path d="M147.865 86.4066C150.91 85.9729 150.033 82.4558 148.896 80.7309C148.896 80.7309 155.641 72.5885 147.865 69.3026C140.089 66.0167 141.968 71.1431 141.968 71.1431C141.968 71.1431 135.868 66.566 130.568 70.2662C125.268 73.9664 129.845 75.566 129.845 75.566C129.845 75.566 120.209 78.399 124.064 83.2748C127.918 88.1507 131.898 87.6592 131.898 87.6592C131.898 87.6592 123.91 90.8102 129.971 94.3467C136.032 97.8831 138.306 98.0373 138.306 98.0373C139.926 98.2388 141.565 97.8609 142.934 96.9704C144.302 96.0798 145.312 94.7341 145.783 93.1711L147.865 86.4066Z" fill="#263238"/>
<path d="M145.244 86.4257C145.374 88.0968 146.051 89.6784 147.171 90.9257C148.645 92.5542 150.187 91.5328 150.457 89.5574C150.688 87.7651 150.206 84.7393 148.395 83.8721C146.583 83.0049 145.128 84.4117 145.244 86.4257Z" fill="#FF8B7B"/>
<path d="M147.817 168.766C147.817 168.766 140.108 220.56 135.897 239.967C131.272 261.214 106.478 331.509 106.478 331.509L94.3464 328.878C94.3464 328.878 111.691 271.582 115.546 241.874C118.533 219.056 124.401 168.747 124.401 168.747L147.817 168.766Z" fill="#263238"/>
<path d="M109.388 327.471L107.123 331.865L93.4692 328.907L94.6256 324.802L109.388 327.471Z" fill="#407BFF"/>
<path opacity="0.3" d="M142.95 187.219C134.056 188.963 135.001 222.13 136.07 239.196C138.633 227.131 142.391 203.928 144.955 187.46C144.334 187.153 143.626 187.068 142.95 187.219V187.219Z" fill="black"/>
<path d="M160.671 168.766C160.671 168.766 161.635 219.442 160.873 240.073C160.103 261.571 152.596 331.962 152.596 331.962H141.11C141.11 331.962 140.696 262.823 140.146 241.711C139.626 218.738 136.832 168.766 136.832 168.766H160.671Z" fill="#263238"/>
<path d="M154.803 327.433C154.861 327.433 154.157 332.193 154.157 332.193H140.185L139.809 327.943L154.803 327.433Z" fill="#407BFF"/>
<path d="M148.241 118.851C144.984 127.61 164.082 137.93 164.082 137.93L172.35 127.331C172.35 127.331 166.829 116.355 160.064 111.402C151.7 105.264 150.708 112.183 148.241 118.851Z" fill="#407BFF"/>
<path opacity="0.4" d="M148.241 118.851C144.984 127.61 164.082 137.93 164.082 137.93L172.35 127.331C172.35 127.331 166.829 116.355 160.064 111.402C151.7 105.264 150.708 112.183 148.241 118.851Z" fill="white"/>
<path d="M203.089 141.602C204.398 141.602 205.459 140.804 205.459 139.819C205.459 138.835 204.398 138.036 203.089 138.036C201.78 138.036 200.719 138.835 200.719 139.819C200.719 140.804 201.78 141.602 203.089 141.602Z" fill="#263238"/>
<path d="M202.174 145.504C202.102 145.505 202.031 145.49 201.966 145.46C201.901 145.43 201.844 145.386 201.798 145.331C201.717 145.234 201.677 145.108 201.688 144.982C201.699 144.856 201.759 144.739 201.856 144.656C201.913 144.608 203.147 143.481 202.617 140.86C202.604 140.798 202.604 140.735 202.616 140.674C202.628 140.612 202.653 140.554 202.688 140.502C202.723 140.45 202.768 140.405 202.82 140.371C202.872 140.336 202.931 140.313 202.993 140.301C203.055 140.288 203.119 140.288 203.181 140.3C203.243 140.312 203.302 140.336 203.355 140.371C203.408 140.406 203.453 140.451 203.488 140.503C203.524 140.556 203.549 140.615 203.561 140.677C204.216 143.886 202.549 145.331 202.482 145.389C202.396 145.462 202.287 145.503 202.174 145.504V145.504Z" fill="#263238"/>
<path opacity="0.4" d="M205.016 139.723C205.016 140.455 204.159 141.043 203.089 141.043C202.019 141.043 201.162 140.455 201.162 139.723C201.162 138.991 202.019 138.412 203.089 138.412C204.159 138.412 205.016 138.962 205.016 139.723Z" fill="white"/>
<path d="M151.228 108.377C146.795 111.547 139.115 123.794 137.737 131.031C137.728 131.079 137.704 131.123 137.669 131.157C137.635 131.191 137.59 131.214 137.542 131.222C137.494 131.23 137.445 131.224 137.4 131.204C137.356 131.183 137.319 131.15 137.294 131.108C133.11 124.33 130.627 116.64 130.057 108.695C130.055 108.663 130.046 108.632 130.032 108.604C130.018 108.575 129.998 108.55 129.973 108.53C129.949 108.509 129.921 108.493 129.891 108.484C129.861 108.474 129.829 108.47 129.797 108.473C128.718 108.545 127.644 108.677 126.579 108.868C126.526 108.883 126.48 108.914 126.447 108.958C126.414 109.001 126.396 109.054 126.396 109.109C126.919 119.04 130.455 128.575 136.533 136.446C136.545 136.47 136.551 136.497 136.551 136.523C136.551 136.55 136.545 136.577 136.533 136.601C135.945 147.441 136.726 166.819 136.822 169.122C136.824 169.184 136.851 169.243 136.896 169.286C136.941 169.329 137.001 169.353 137.063 169.353H139.954C139.986 169.353 140.018 169.347 140.048 169.334C140.078 169.322 140.105 169.303 140.127 169.28C140.15 169.256 140.168 169.228 140.179 169.198C140.191 169.168 140.196 169.135 140.195 169.103C140.06 166.887 139.154 150.052 140.195 136.244C141.823 125.972 151.565 112.086 154.986 109.34C155.023 109.313 155.05 109.275 155.066 109.232C155.081 109.189 155.083 109.142 155.072 109.098C155.06 109.053 155.036 109.013 155.002 108.983C154.968 108.952 154.925 108.932 154.88 108.926C153.434 108.608 151.777 108.406 151.382 108.367C151.331 108.353 151.277 108.357 151.228 108.377Z" fill="#407BFF"/>
</svg>
